<svg id="Layer_1" data-name="Layer 1" xmlns="http://www.w3.org/2000/svg" viewBox="0 0 17 21"><defs><style>.cls-1{fill:#fff;fill-rule:evenodd;}</style></defs><title>apple-icon-white</title><g id="PERSONAL-BANKING_Debit" data-name="PERSONAL-BANKING Debit"><g id="Page-1"><path id="Fill-1" class="cls-1" d="M5.67,21h-.5a4.19,4.19,0,0,1-.7-.26,4.3,4.3,0,0,1-1.38-1.2A13.36,13.36,0,0,1,1,16.09a13,13,0,0,1-1-3.93A7.73,7.73,0,0,1,.75,8,5.1,5.1,0,0,1,4.23,5.17,3.36,3.36,0,0,1,6,5.16c.59.18,1.16.38,1.74.59a1.91,1.91,0,0,0,1.52.09c.35-.15.71-.27,1.06-.4A5.59,5.59,0,0,1,12.13,5a5.19,5.19,0,0,1,3.31,1,4.28,4.28,0,0,1,1,1.09l-.1.08a5.32,5.32,0,0,0-1.13,1,4.47,4.47,0,0,0-1,3.64,4.38,4.38,0,0,0,1.2,2.45,5,5,0,0,0,1.39,1c.1,0,.15.1.1.23s-.16.44-.25.66a12.22,12.22,0,0,1-1.44,2.6,7.27,7.27,0,0,1-1.42,1.61,2.41,2.41,0,0,1-1.69.55,3.81,3.81,0,0,1-1.47-.41,4.06,4.06,0,0,0-3-.22c-.26.08-.5.21-.76.3L5.67,21" transform="translate(0)"/><path id="Fill-3" class="cls-1" d="M13,0a8.83,8.83,0,0,1,0,1,4.9,4.9,0,0,1-1.62,3.08A3.13,3.13,0,0,1,9,5a3.18,3.18,0,0,1,0-1.11A4.83,4.83,0,0,1,11,.78,4,4,0,0,1,12.74,0l.09,0Z" transform="translate(0)"/></g></g></svg>