<svg width="214" height="111" viewBox="0 0 214 111" fill="none" xmlns="http://www.w3.org/2000/svg">
<g clip-path="url(#clip0_3765_1394)">
<path d="M2.10229 110.831V101.933H8.39034V103.608H3.99809V105.489H8.29649V107.219H3.99809V110.981L2.10229 110.831Z" fill="white"/>
<path d="M12.1819 110.831V101.933H18.4699V103.608H14.0777V105.489H18.3761V107.219H14.0777V109.1H18.4699V110.774L12.1819 110.831Z" fill="white"/>
<path d="M22.4119 110.831V101.933H25.9219C26.5291 101.894 27.138 101.98 27.7109 102.185C28.2838 102.391 28.8085 102.712 29.2525 103.129C29.6965 103.546 30.0505 104.05 30.2925 104.609C30.5344 105.169 30.6593 105.772 30.6593 106.382C30.6593 106.992 30.5344 107.595 30.2925 108.155C30.0505 108.714 29.6965 109.218 29.2525 109.635C28.8085 110.052 28.2838 110.373 27.7109 110.579C27.138 110.785 26.5291 110.87 25.9219 110.831H22.4119ZM28.6999 106.373C28.728 106.002 28.6759 105.63 28.5472 105.282C28.4185 104.934 28.2162 104.618 27.9541 104.355C27.6921 104.092 27.3765 103.89 27.029 103.761C26.6814 103.632 26.3102 103.579 25.9407 103.608H24.4015V109.251H26.0158C26.3863 109.257 26.754 109.186 27.0952 109.041C27.4364 108.896 27.7435 108.681 27.9965 108.41C28.2495 108.139 28.4429 107.817 28.564 107.466C28.6852 107.115 28.7315 106.743 28.6999 106.373Z" fill="white"/>
<path d="M34.4622 110.831V101.933H40.7502V103.608H36.3392V105.489H40.6564V107.219H36.3392V109.1H40.7502V110.774L34.4622 110.831Z" fill="white"/>
<path d="M49.7036 110.831L47.9767 107.671H46.5877V110.831H44.7107V101.933H48.8026C49.1923 101.901 49.5844 101.952 49.9531 102.083C50.3219 102.213 50.659 102.42 50.9425 102.69C51.226 102.96 51.4494 103.286 51.5982 103.649C51.747 104.011 51.8177 104.401 51.8059 104.793C51.8447 105.384 51.6793 105.97 51.3375 106.453C50.9956 106.936 50.4982 107.286 49.9288 107.445L51.9373 110.831H49.7036ZM49.8913 104.793C49.8923 104.625 49.858 104.46 49.7905 104.306C49.723 104.153 49.624 104.016 49.4999 103.904C49.3757 103.792 49.2293 103.708 49.0703 103.657C48.9113 103.606 48.7433 103.589 48.5774 103.608H46.5877V105.996H48.5774C48.7443 106.012 48.9127 105.993 49.0717 105.939C49.2308 105.886 49.3768 105.8 49.5006 105.686C49.6244 105.573 49.7231 105.435 49.7904 105.281C49.8577 105.127 49.892 104.961 49.8913 104.793Z" fill="white"/>
<path d="M61.942 110.831L61.3789 109.326H57.6248L57.0805 110.831H54.7905L58.1879 101.933H60.553L63.9692 110.831H61.942ZM59.408 103.833L58.019 107.595H60.797L59.408 103.833Z" fill="white"/>
<path d="M67.2351 110.831V101.933H69.1121V109.1H72.8662V110.774L67.2351 110.831Z" fill="white"/>
<path d="M82.12 106.391C82.1063 105.771 82.2203 105.155 82.4549 104.581C82.6895 104.007 83.0397 103.487 83.4835 103.055C83.9274 102.622 84.4554 102.286 85.0346 102.067C85.6138 101.849 86.2319 101.752 86.8501 101.783C87.6191 101.746 88.3823 101.932 89.0483 102.319C89.7142 102.706 90.2545 103.278 90.6042 103.965L88.9899 104.755C88.7833 104.365 88.4753 104.039 88.0986 103.81C87.7218 103.582 87.2904 103.46 86.8501 103.457C86.1164 103.516 85.4318 103.85 84.9326 104.392C84.4334 104.934 84.1562 105.644 84.1562 106.382C84.1562 107.12 84.4334 107.83 84.9326 108.372C85.4318 108.914 86.1164 109.248 86.8501 109.307C87.2817 109.298 87.703 109.173 88.0696 108.945C88.4363 108.716 88.7347 108.393 88.9336 108.009L90.5478 108.799C90.1953 109.485 89.655 110.057 88.9902 110.447C88.3254 110.836 87.5635 111.028 86.7938 111C86.1809 111.02 85.5702 110.916 84.9988 110.692C84.4275 110.469 83.9074 110.132 83.4703 109.701C83.0331 109.27 82.688 108.754 82.4559 108.185C82.2238 107.616 82.1095 107.006 82.12 106.391Z" fill="white"/>
<path d="M99.1821 110.831L97.4364 107.671H96.0474V110.831H94.1704V101.933H98.3374C98.7293 101.896 99.1247 101.942 99.497 102.07C99.8694 102.198 100.21 102.404 100.496 102.675C100.783 102.946 101.008 103.275 101.157 103.64C101.305 104.005 101.375 104.398 101.359 104.793C101.398 105.384 101.233 105.97 100.891 106.453C100.549 106.936 100.052 107.286 99.4824 107.445L101.359 110.831H99.1821ZM99.3698 104.793C99.3679 104.626 99.3316 104.462 99.2632 104.31C99.1947 104.158 99.0957 104.023 98.9722 103.911C98.8487 103.8 98.7035 103.715 98.5458 103.663C98.3881 103.611 98.2213 103.592 98.0559 103.608H96.0474V105.996H98.0559C98.2228 106.012 98.3912 105.993 98.5502 105.939C98.7092 105.886 98.8553 105.8 98.9791 105.686C99.1029 105.573 99.2016 105.435 99.2689 105.281C99.3361 105.127 99.3705 104.961 99.3698 104.793Z" fill="white"/>
<path d="M105.114 110.831V101.933H111.402V103.608H107.084V105.489H111.383V107.219H107.084V109.1H111.477V110.774L105.114 110.831Z" fill="white"/>
<path d="M115.437 110.831V101.933H118.929C119.536 101.894 120.145 101.98 120.718 102.185C121.29 102.391 121.815 102.712 122.259 103.129C122.703 103.546 123.057 104.05 123.299 104.609C123.541 105.169 123.666 105.772 123.666 106.382C123.666 106.992 123.541 107.595 123.299 108.155C123.057 108.714 122.703 109.218 122.259 109.635C121.815 110.052 121.29 110.373 120.718 110.579C120.145 110.785 119.536 110.87 118.929 110.831H115.437ZM121.725 106.373C121.751 106.001 121.696 105.629 121.565 105.281C121.434 104.933 121.23 104.617 120.966 104.354C120.703 104.092 120.386 103.89 120.038 103.761C119.69 103.632 119.318 103.58 118.947 103.608H117.333V109.251H118.929C119.308 109.271 119.686 109.209 120.04 109.071C120.393 108.932 120.713 108.719 120.978 108.447C121.242 108.174 121.446 107.848 121.575 107.491C121.704 107.133 121.755 106.752 121.725 106.373Z" fill="white"/>
<path d="M127.469 110.831V101.933H129.346V110.831H127.469Z" fill="white"/>
<path d="M135.634 110.831V103.608H133.044V101.933H140.139V103.608H137.549V110.831H135.634Z" fill="white"/>
<path d="M149.712 107.219V101.933H151.589V107.219C151.555 107.503 151.586 107.791 151.681 108.061C151.775 108.331 151.929 108.576 152.131 108.777C152.334 108.979 152.58 109.131 152.85 109.223C153.12 109.315 153.408 109.343 153.691 109.307C153.974 109.343 154.262 109.315 154.532 109.223C154.802 109.131 155.048 108.979 155.251 108.777C155.453 108.576 155.608 108.331 155.702 108.061C155.796 107.791 155.827 107.503 155.793 107.219V101.933H157.67V107.219C157.601 108.237 157.148 109.19 156.405 109.886C155.661 110.582 154.681 110.97 153.663 110.97C152.645 110.97 151.665 110.582 150.921 109.886C150.177 109.19 149.725 108.237 149.656 107.219H149.712Z" fill="white"/>
<path d="M168.088 110.831L163.846 105.018V110.831H161.969V101.933H163.846L167.956 107.577V101.933H169.834V110.831H168.088Z" fill="white"/>
<path d="M174.132 110.831V101.933H176.009V110.831H174.132Z" fill="white"/>
<path d="M179.838 106.391C179.827 105.47 180.089 104.566 180.592 103.795C181.094 103.024 181.815 102.419 182.661 102.059C183.507 101.699 184.441 101.598 185.344 101.771C186.247 101.944 187.078 102.382 187.732 103.03C188.386 103.677 188.833 104.505 189.017 105.408C189.2 106.31 189.112 107.247 188.763 108.1C188.414 108.952 187.819 109.681 187.056 110.194C186.292 110.707 185.394 110.981 184.474 110.981C183.863 111.007 183.253 110.907 182.683 110.686C182.112 110.466 181.593 110.129 181.158 109.699C180.723 109.268 180.381 108.752 180.154 108.183C179.927 107.614 179.819 107.004 179.838 106.391ZM187.177 106.391C187.137 105.866 186.945 105.364 186.625 104.947C186.304 104.53 185.87 104.215 185.374 104.041C184.877 103.868 184.342 103.843 183.832 103.969C183.322 104.096 182.86 104.369 182.502 104.755C182.144 105.141 181.907 105.622 181.818 106.141C181.729 106.66 181.794 107.194 182.003 107.677C182.212 108.16 182.557 108.572 182.996 108.861C183.435 109.151 183.949 109.306 184.474 109.307C184.847 109.308 185.216 109.232 185.559 109.083C185.901 108.934 186.209 108.716 186.462 108.442C186.716 108.168 186.911 107.845 187.034 107.492C187.157 107.139 187.206 106.764 187.177 106.391Z" fill="white"/>
<path d="M198.965 110.831L194.742 105.018V110.831H192.865V101.933H194.742L198.852 107.577V101.933H200.73V110.831H198.965Z" fill="white"/>
<path d="M147.366 30.0966C147.413 29.928 147.504 29.7749 147.629 29.6528C147.754 29.5306 147.909 29.4436 148.079 29.4006L153.147 28.4789C154.892 28.1779 155.024 27.181 153.541 26.2969L149.092 23.6823C148.946 23.5892 148.828 23.4574 148.752 23.3013C148.676 23.1453 148.644 22.9711 148.661 22.7982L149.355 17.6817C149.599 15.9324 148.717 15.4621 147.478 16.6284L143.611 20.0707C143.473 20.174 143.311 20.2402 143.14 20.2633C142.97 20.2863 142.796 20.2653 142.635 20.2023L137.999 17.9451C136.404 17.1927 135.69 17.9451 136.404 19.5064L138.468 24.2278C138.53 24.3911 138.547 24.5679 138.517 24.7399C138.487 24.9119 138.412 25.0728 138.299 25.2059L134.733 28.968C133.513 30.2471 133.945 31.15 135.69 30.9807L140.777 30.3787C140.949 30.3676 141.12 30.4039 141.272 30.4835C141.424 30.5631 141.552 30.683 141.641 30.8302L144.081 35.3823C144.925 36.9436 145.958 36.8119 146.277 35.0813L147.366 30.0966ZM55.7665 35.119C56.1419 36.8495 57.1367 37 57.9626 35.4199L60.384 30.849C60.4729 30.7018 60.6005 30.5819 60.7527 30.5023C60.905 30.4227 61.0761 30.3864 61.2474 30.3976L66.3905 30.8678C68.1361 31.0371 68.5678 30.1342 67.3478 28.8739L63.7627 25.1118C63.6502 24.9825 63.5736 24.8258 63.5406 24.6574C63.5077 24.489 63.5195 24.3149 63.575 24.1525L65.696 19.3747C66.3905 17.757 65.696 17.061 64.0818 17.851L59.4455 20.1083C59.2871 20.1813 59.1112 20.2077 58.9384 20.1844C58.7656 20.1611 58.6029 20.089 58.4694 19.9766L54.5464 16.5719C53.2325 15.4057 52.3503 15.876 52.6694 17.6253L53.3827 22.7417C53.3991 22.9126 53.3694 23.0848 53.2968 23.2404C53.2242 23.3959 53.1112 23.529 52.9697 23.6258L48.4461 26.3345C46.9257 27.2374 47.1134 28.2156 48.8403 28.5165L53.927 29.4194C54.0959 29.4572 54.2514 29.5401 54.377 29.6593C54.5026 29.7785 54.5936 29.9297 54.6403 30.0966L55.7665 35.119ZM53.8895 83.3299C53.8895 83.8288 54.0872 84.3073 54.4393 84.66C54.7913 85.0128 55.2687 85.211 55.7665 85.211H63.819C64.3168 85.211 64.7942 85.0128 65.1462 84.66C65.4982 84.3073 65.696 83.8288 65.696 83.3299V47.7031C65.696 47.2042 65.4982 46.7258 65.1462 46.373C64.7942 46.0202 64.3168 45.8221 63.819 45.8221H55.6914C55.1936 45.8221 54.7162 46.0202 54.3642 46.373C54.0122 46.7258 53.8144 47.2042 53.8144 47.7031L53.8895 83.3299ZM99.1822 85.211C99.3433 85.5142 99.5841 85.7674 99.8786 85.9431C100.173 86.1189 100.51 86.2104 100.853 86.2079H101.36C101.702 86.2104 102.039 86.1189 102.334 85.9431C102.628 85.7674 102.869 85.5142 103.03 85.211L120.974 48.2862C121.65 47.0071 120.974 45.9161 119.604 45.9161H111.871C110.801 45.9161 109.994 46.0102 109.525 47.0071L101.097 65.272H100.89L92.9505 47.0259C92.7958 46.6905 92.546 46.4082 92.2322 46.2142C91.9184 46.0201 91.5546 45.923 91.1861 45.9349H82.5893C81.1064 45.9349 80.7122 47.0259 81.2002 48.305L99.1822 85.211ZM136.535 83.3299C136.535 83.8288 136.733 84.3073 137.085 84.66C137.437 85.0128 137.914 85.211 138.412 85.211H146.408C146.906 85.211 147.383 85.0128 147.735 84.66C148.087 84.3073 148.285 83.8288 148.285 83.3299V47.7031C148.285 47.2042 148.087 46.7258 147.735 46.373C147.383 46.0202 146.906 45.8221 146.408 45.8221H138.356C137.858 45.8221 137.381 46.0202 137.029 46.373C136.676 46.7258 136.479 47.2042 136.479 47.7031L136.535 83.3299ZM4.23296e-09 65.4977C-5.5122e-05 68.2261 0.538326 70.9275 1.58416 73.4465C2.62999 75.9655 4.16262 78.2524 6.09384 80.1755C8.02506 82.0986 10.3167 83.62 12.837 84.652C15.3572 85.6841 18.0562 86.2065 20.7787 86.1891C23.8599 86.304 26.9168 85.6008 29.6395 84.1507C32.3622 82.7005 34.6541 80.555 36.283 77.9314C36.9587 76.9532 36.5645 76.0503 35.5885 75.1851L31.3651 71.4794C30.9903 71.227 30.5373 71.1185 30.0891 71.1738C29.6409 71.2291 29.2276 71.4444 28.925 71.7804C27.9778 72.9517 26.7822 73.8969 25.4252 74.5477C24.0681 75.1984 22.5835 75.5382 21.079 75.5424C19.7949 75.5182 18.5283 75.2387 17.3527 74.7201C16.1771 74.2016 15.116 73.4544 14.2307 72.5218C13.3455 71.5892 12.6538 70.4897 12.1958 69.2872C11.7378 68.0847 11.5225 66.803 11.5625 65.5165C11.5172 62.9119 12.5026 60.3951 14.3035 58.5164C16.1043 56.6377 18.574 55.5499 21.1729 55.4906C22.4579 55.515 23.7239 55.8068 24.8903 56.3476C26.0568 56.8884 27.0984 57.6663 27.949 58.6319C28.6247 59.215 29.5069 59.7229 30.3891 58.9329L34.894 54.6065C35.1177 54.4686 35.3101 54.2852 35.4587 54.0681C35.6073 53.851 35.7087 53.6051 35.7565 53.3462C35.8043 53.0874 35.7973 52.8214 35.736 52.5654C35.6747 52.3094 35.5605 52.0692 35.4008 51.8602C33.6924 49.6441 31.4907 47.859 28.9715 46.6473C26.4523 45.4356 23.6852 44.8309 20.8913 44.8815C15.4113 44.9002 10.1564 47.0683 6.25174 50.9216C2.34707 54.7748 0.102995 60.0069 4.23296e-09 65.4977H4.23296e-09ZM166.098 65.4977C166.098 68.2261 166.637 70.9275 167.682 73.4465C168.728 75.9655 170.261 78.2524 172.192 80.1755C174.123 82.0986 176.415 83.62 178.935 84.652C181.455 85.6841 184.154 86.2065 186.877 86.1891C189.958 86.304 193.015 85.6008 195.738 84.1507C198.46 82.7005 200.752 80.555 202.381 77.9314C203.057 76.9532 202.663 76.0503 201.687 75.1851L197.463 71.4794C197.089 71.227 196.635 71.1185 196.187 71.1738C195.739 71.2291 195.326 71.4444 195.023 71.7804C194.076 72.9517 192.88 73.8969 191.523 74.5477C190.166 75.1984 188.682 75.5382 187.177 75.5424C185.893 75.5182 184.627 75.2387 183.451 74.7201C182.275 74.2016 181.214 73.4544 180.329 72.5218C179.444 71.5892 178.752 70.4897 178.294 69.2872C177.836 68.0847 177.621 66.803 177.661 65.5165C177.615 62.9119 178.601 60.3951 180.402 58.5164C182.203 56.6377 184.672 55.5499 187.271 55.4906C188.556 55.515 189.822 55.8068 190.989 56.3476C192.155 56.8884 193.197 57.6663 194.047 58.6319C194.723 59.215 195.605 59.7229 196.487 58.9329L200.992 54.6065C201.216 54.4686 201.408 54.2852 201.557 54.0681C201.706 53.851 201.807 53.6051 201.855 53.3462C201.902 53.0874 201.896 52.8214 201.834 52.5654C201.773 52.3094 201.659 52.0692 201.499 51.8602C199.791 49.6441 197.589 47.859 195.07 46.6473C192.551 45.4356 189.783 44.8309 186.99 44.8815C181.51 44.9002 176.255 47.0683 172.35 50.9216C168.445 54.7748 166.201 60.0069 166.098 65.4977ZM147.366 30.0966C147.413 29.928 147.504 29.7749 147.629 29.6528C147.754 29.5306 147.909 29.4436 148.079 29.4006L153.147 28.4789C154.892 28.1779 155.024 27.181 153.541 26.2969L149.092 23.6823C148.946 23.5892 148.828 23.4574 148.752 23.3013C148.676 23.1453 148.644 22.9711 148.661 22.7982L149.355 17.6817C149.599 15.9324 148.717 15.4621 147.478 16.6284L143.611 20.0707C143.473 20.174 143.311 20.2402 143.14 20.2633C142.97 20.2863 142.796 20.2653 142.635 20.2023L137.999 17.9451C136.404 17.1927 135.69 17.9451 136.404 19.4875L138.468 24.2278C138.53 24.3911 138.547 24.5679 138.517 24.7399C138.487 24.9119 138.412 25.0728 138.299 25.2059L134.733 28.968C133.513 30.2471 133.945 31.15 135.69 30.9807L140.777 30.3787C140.949 30.3676 141.12 30.4039 141.272 30.4835C141.424 30.5631 141.552 30.683 141.641 30.8302L144.081 35.3823C144.925 36.9436 145.958 36.8119 146.277 35.0813L147.366 30.0966ZM55.7665 35.119C56.1419 36.8495 57.1367 37 57.9626 35.4199L60.384 30.849C60.4729 30.7018 60.6005 30.5819 60.7527 30.5023C60.905 30.4227 61.0761 30.3864 61.2474 30.3976L66.3905 30.8678C68.1361 31.0371 68.5678 30.1342 67.3478 28.8739L63.7627 25.1118C63.6502 24.9825 63.5736 24.8258 63.5406 24.6574C63.5077 24.489 63.5195 24.3149 63.575 24.1525L65.696 19.3747C66.3905 17.757 65.696 17.061 64.0818 17.851L59.4455 20.1083C59.2871 20.1813 59.1112 20.2077 58.9384 20.1844C58.7656 20.1611 58.6029 20.089 58.4694 19.9766L54.5464 16.5719C53.2325 15.4057 52.3503 15.876 52.6694 17.6253L53.3827 22.7417C53.3991 22.9126 53.3694 23.0848 53.2968 23.2404C53.2242 23.3959 53.1112 23.529 52.9697 23.6258L48.4461 26.3345C46.9257 27.2374 47.1134 28.2156 48.8403 28.5165L53.927 29.4194C54.0959 29.4572 54.2514 29.5401 54.377 29.6593C54.5026 29.7785 54.5936 29.9297 54.6403 30.0966L55.7665 35.119ZM4.23296e-09 65.4977C-5.5122e-05 68.2261 0.538326 70.9275 1.58416 73.4465C2.62999 75.9655 4.16262 78.2524 6.09384 80.1755C8.02506 82.0986 10.3167 83.62 12.837 84.652C15.3572 85.6841 18.0562 86.2065 20.7787 86.1891C23.8599 86.304 26.9168 85.6008 29.6395 84.1507C32.3622 82.7005 34.6541 80.555 36.283 77.9314C36.9587 76.9532 36.5645 76.0503 35.5885 75.1851L31.3651 71.4794C30.9903 71.227 30.5373 71.1185 30.0891 71.1738C29.6409 71.2291 29.2276 71.4444 28.925 71.7804C27.9778 72.9517 26.7822 73.8969 25.4252 74.5477C24.0681 75.1984 22.5835 75.5382 21.079 75.5424C19.7949 75.5182 18.5283 75.2387 17.3527 74.7201C16.1771 74.2016 15.116 73.4544 14.2307 72.5218C13.3455 71.5892 12.6538 70.4897 12.1958 69.2872C11.7378 68.0847 11.5225 66.803 11.5625 65.5165C11.5172 62.9119 12.5026 60.3951 14.3035 58.5164C16.1043 56.6377 18.574 55.5499 21.1729 55.4906C22.4579 55.515 23.7239 55.8068 24.8903 56.3476C26.0568 56.8884 27.0984 57.6663 27.949 58.6319C28.6247 59.215 29.5069 59.7229 30.3891 58.9329L34.894 54.6065C35.1177 54.4686 35.3101 54.2852 35.4587 54.0681C35.6073 53.851 35.7087 53.6051 35.7565 53.3462C35.8043 53.0874 35.7973 52.8214 35.736 52.5654C35.6747 52.3094 35.5605 52.0692 35.4008 51.8602C33.6924 49.6441 31.4907 47.859 28.9715 46.6473C26.4523 45.4356 23.6852 44.8309 20.8913 44.8815C15.4113 44.9002 10.1564 47.0683 6.25174 50.9216C2.34707 54.7748 0.102995 60.0069 4.23296e-09 65.4977H4.23296e-09ZM53.8332 83.2735C53.8332 83.7724 54.0309 84.2508 54.3829 84.6036C54.735 84.9564 55.2124 85.1545 55.7102 85.1545H63.819C64.3168 85.1545 64.7942 84.9564 65.1462 84.6036C65.4982 84.2508 65.696 83.7724 65.696 83.2735V47.7031C65.696 47.2042 65.4982 46.7258 65.1462 46.373C64.7942 46.0202 64.3168 45.8221 63.819 45.8221H55.6914C55.1936 45.8221 54.7162 46.0202 54.3642 46.373C54.0122 46.7258 53.8144 47.2042 53.8144 47.7031L53.8332 83.2735ZM99.1259 85.1545C99.287 85.4577 99.5278 85.7109 99.8223 85.8867C100.117 86.0624 100.454 86.154 100.796 86.1515H101.36C101.702 86.154 102.039 86.0624 102.334 85.8867C102.628 85.7109 102.869 85.4577 103.03 85.1545L120.974 48.2298C121.65 46.9507 120.974 45.8597 119.604 45.8597H111.871C110.801 45.8597 109.994 45.9537 109.525 46.9507L101.097 65.2155H100.89L92.9505 47.0259C92.7958 46.6905 92.546 46.4082 92.2322 46.2142C91.9184 46.0201 91.5546 45.923 91.1861 45.9349H82.5893C81.1064 45.9349 80.7122 47.0259 81.2002 48.305L99.1259 85.1545ZM136.479 83.2735C136.479 83.7724 136.676 84.2508 137.029 84.6036C137.381 84.9564 137.858 85.1545 138.356 85.1545H146.408C146.906 85.1545 147.383 84.9564 147.735 84.6036C148.087 84.2508 148.285 83.7724 148.285 83.2735V47.7031C148.285 47.2042 148.087 46.7258 147.735 46.373C147.383 46.0202 146.906 45.8221 146.408 45.8221H138.356C137.858 45.8221 137.381 46.0202 137.029 46.373C136.676 46.7258 136.479 47.2042 136.479 47.7031V83.2735ZM166.098 65.4977C166.098 68.2261 166.637 70.9275 167.682 73.4465C168.728 75.9655 170.261 78.2524 172.192 80.1755C174.123 82.0986 176.415 83.62 178.935 84.652C181.455 85.6841 184.154 86.2065 186.877 86.1891C189.958 86.304 193.015 85.6008 195.738 84.1507C198.46 82.7005 200.752 80.555 202.381 77.9314C203.057 76.9532 202.663 76.0503 201.687 75.1851L197.463 71.4794C197.089 71.227 196.635 71.1185 196.187 71.1738C195.739 71.2291 195.326 71.4444 195.023 71.7804C194.076 72.9517 192.88 73.8969 191.523 74.5477C190.166 75.1984 188.682 75.5382 187.177 75.5424C185.893 75.5182 184.627 75.2387 183.451 74.7201C182.275 74.2016 181.214 73.4544 180.329 72.5218C179.444 71.5892 178.752 70.4897 178.294 69.2872C177.836 68.0847 177.621 66.803 177.661 65.5165C177.615 62.9119 178.601 60.3951 180.402 58.5164C182.203 56.6377 184.672 55.5499 187.271 55.4906C188.556 55.515 189.822 55.8068 190.989 56.3476C192.155 56.8884 193.197 57.6663 194.047 58.6319C194.723 59.215 195.605 59.7229 196.487 58.9329L200.992 54.6065C201.216 54.4686 201.408 54.2852 201.557 54.0681C201.706 53.851 201.807 53.6051 201.855 53.3462C201.902 53.0874 201.896 52.8214 201.834 52.5654C201.773 52.3094 201.659 52.0692 201.499 51.8602C199.791 49.6441 197.589 47.859 195.07 46.6473C192.551 45.4356 189.783 44.8309 186.99 44.8815C181.51 44.9002 176.255 47.0683 172.35 50.9216C168.445 54.7748 166.201 60.0069 166.098 65.4977ZM107.91 18.1144C108.398 19.8073 107.591 20.3904 106.033 19.4123L101.829 16.5531C101.682 16.4613 101.513 16.4127 101.341 16.4127C101.168 16.4127 100.999 16.4613 100.853 16.5531L96.5543 19.4123C95.0903 20.3904 94.2831 19.8073 94.6773 18.0956L96.1602 13.1673C96.1979 12.9979 96.1899 12.8215 96.1371 12.6562C96.0844 12.491 95.9887 12.3427 95.8598 12.2267L91.8055 9.02898C90.4352 7.93798 90.7355 6.97865 92.5 6.90341L97.6055 6.67768C97.7798 6.66195 97.9468 6.59952 98.0888 6.49693C98.2308 6.39433 98.3426 6.25536 98.4126 6.09456L100.233 1.24148C100.853 -0.413828 101.848 -0.413828 102.467 1.24148L104.25 6.09456C104.319 6.25277 104.428 6.39003 104.566 6.49244C104.704 6.59484 104.867 6.65875 105.039 6.67768L110.2 6.8846C111.946 6.8846 112.265 7.90036 110.876 8.99136L106.822 12.1891C106.694 12.3063 106.6 12.4546 106.547 12.6195C106.495 12.7844 106.486 12.9602 106.521 13.1296L107.91 18.1144ZM147.328 30.0402C147.375 29.8716 147.466 29.7185 147.591 29.5963C147.717 29.4741 147.872 29.3872 148.041 29.3442L153.109 28.4225C154.855 28.1215 154.986 27.1246 153.503 26.2405L149.055 23.6258C148.908 23.5328 148.791 23.4009 148.714 23.2449C148.638 23.0888 148.607 22.9147 148.623 22.7417L149.318 17.6253C149.562 15.876 148.679 15.4057 147.441 16.5719L143.574 20.0142C143.436 20.1175 143.274 20.1838 143.103 20.2069C142.932 20.2299 142.758 20.2089 142.598 20.1459L137.962 17.8887C136.366 17.1362 135.653 17.8887 136.366 19.4499L138.431 24.1713C138.492 24.3346 138.509 24.5115 138.479 24.6835C138.45 24.8555 138.375 25.0164 138.262 25.1495L134.696 28.9115C133.475 30.1906 133.907 31.0935 135.653 30.9242L140.777 30.3787C140.949 30.3676 141.12 30.4039 141.272 30.4835C141.424 30.5631 141.552 30.683 141.641 30.8302L144.081 35.3823C144.925 36.9436 145.958 36.8119 146.277 35.0813L147.328 30.0402ZM55.729 35.0625C56.1044 36.7931 57.0992 36.9436 57.9251 35.3635L60.3465 30.7926C60.4354 30.6454 60.5629 30.5254 60.7152 30.4458C60.8674 30.3662 61.0385 30.33 61.2099 30.3411L66.353 30.8114C68.0986 30.9807 68.5303 30.0778 67.3102 28.8175L63.7251 25.0554C63.6126 24.9261 63.536 24.7693 63.5031 24.6009C63.4701 24.4325 63.482 24.2584 63.5374 24.0961L65.696 19.3747C66.3905 17.757 65.696 17.061 64.0818 17.851L59.4455 20.1083C59.2871 20.1813 59.1112 20.2077 58.9384 20.1844C58.7656 20.1611 58.6029 20.089 58.4694 19.9766L54.5464 16.5719C53.2325 15.4057 52.3503 15.876 52.6694 17.6253L53.3827 22.7417C53.3991 22.9126 53.3694 23.0848 53.2968 23.2404C53.2242 23.3959 53.1112 23.529 52.9697 23.6258L48.4461 26.3345C46.9257 27.2374 47.1134 28.2156 48.8403 28.5165L53.927 29.4194C54.0959 29.4572 54.2514 29.5401 54.377 29.6593C54.5026 29.7785 54.5936 29.9297 54.6403 30.0966L55.729 35.0625ZM53.8519 83.2735C53.8519 83.7724 54.0497 84.2508 54.4017 84.6036C54.7537 84.9564 55.2312 85.1545 55.729 85.1545H63.819C64.3168 85.1545 64.7942 84.9564 65.1462 84.6036C65.4982 84.2508 65.696 83.7724 65.696 83.2735V47.7031C65.696 47.2042 65.4982 46.7258 65.1462 46.373C64.7942 46.0202 64.3168 45.8221 63.819 45.8221H55.6914C55.1936 45.8221 54.7162 46.0202 54.3642 46.373C54.0122 46.7258 53.8144 47.2042 53.8144 47.7031L53.8519 83.2735ZM99.1446 85.1545C99.3057 85.4577 99.5466 85.7109 99.8411 85.8867C100.136 86.0624 100.472 86.154 100.815 86.1515H101.36C101.702 86.154 102.039 86.0624 102.334 85.8867C102.628 85.7109 102.869 85.4577 103.03 85.1545L120.974 48.2298C121.65 46.9507 120.974 45.8597 119.604 45.8597H111.871C110.801 45.8597 109.994 45.9537 109.525 46.9507L101.097 65.2155H100.89L92.9505 47.0259C92.7958 46.6905 92.546 46.4082 92.2322 46.2142C91.9184 46.0201 91.5546 45.923 91.1861 45.9349H82.5893C81.1064 45.9349 80.7122 47.0259 81.2002 48.305L99.1446 85.1545ZM136.498 83.2735C136.498 83.7724 136.695 84.2508 137.047 84.6036C137.399 84.9564 137.877 85.1545 138.375 85.1545H146.408C146.906 85.1545 147.383 84.9564 147.735 84.6036C148.087 84.2508 148.285 83.7724 148.285 83.2735V47.7031C148.285 47.2042 148.087 46.7258 147.735 46.373C147.383 46.0202 146.906 45.8221 146.408 45.8221H138.356C137.858 45.8221 137.381 46.0202 137.029 46.373C136.676 46.7258 136.479 47.2042 136.479 47.7031L136.498 83.2735ZM4.23296e-09 65.4977C-5.5122e-05 68.2261 0.538326 70.9275 1.58416 73.4465C2.62999 75.9655 4.16262 78.2524 6.09384 80.1755C8.02506 82.0986 10.3167 83.62 12.837 84.652C15.3572 85.6841 18.0562 86.2065 20.7787 86.1891C23.8599 86.304 26.9168 85.6008 29.6395 84.1507C32.3622 82.7005 34.6541 80.555 36.283 77.9314C36.9587 76.9532 36.5645 76.0503 35.5885 75.1851L31.3651 71.4794C30.9903 71.227 30.5373 71.1185 30.0891 71.1738C29.6409 71.2291 29.2276 71.4444 28.925 71.7804C27.9778 72.9517 26.7822 73.8969 25.4252 74.5477C24.0681 75.1984 22.5835 75.5382 21.079 75.5424C19.7949 75.5182 18.5283 75.2387 17.3527 74.7201C16.1771 74.2016 15.116 73.4544 14.2307 72.5218C13.3455 71.5892 12.6538 70.4897 12.1958 69.2872C11.7378 68.0847 11.5225 66.803 11.5625 65.5165C11.5172 62.9119 12.5026 60.3951 14.3035 58.5164C16.1043 56.6377 18.574 55.5499 21.1729 55.4906C22.4579 55.515 23.7239 55.8068 24.8903 56.3476C26.0568 56.8884 27.0984 57.6663 27.949 58.6319C28.6247 59.215 29.5069 59.7229 30.3891 58.9329L34.894 54.6065C35.1177 54.4686 35.3101 54.2852 35.4587 54.0681C35.6073 53.851 35.7087 53.6051 35.7565 53.3462C35.8043 53.0874 35.7973 52.8214 35.736 52.5654C35.6747 52.3094 35.5605 52.0692 35.4008 51.8602C33.6924 49.6441 31.4907 47.859 28.9715 46.6473C26.4523 45.4356 23.6852 44.8309 20.8913 44.8815C15.4113 44.9002 10.1564 47.0683 6.25174 50.9216C2.34707 54.7748 0.102995 60.0069 4.23296e-09 65.4977H4.23296e-09ZM166.098 65.4977C166.098 68.2261 166.637 70.9275 167.682 73.4465C168.728 75.9655 170.261 78.2524 172.192 80.1755C174.123 82.0986 176.415 83.62 178.935 84.652C181.455 85.6841 184.154 86.2065 186.877 86.1891C189.958 86.304 193.015 85.6008 195.738 84.1507C198.46 82.7005 200.752 80.555 202.381 77.9314C203.057 76.9532 202.663 76.0503 201.687 75.1851L197.463 71.4794C197.089 71.227 196.635 71.1185 196.187 71.1738C195.739 71.2291 195.326 71.4444 195.023 71.7804C194.076 72.9517 192.88 73.8969 191.523 74.5477C190.166 75.1984 188.682 75.5382 187.177 75.5424C185.893 75.5182 184.627 75.2387 183.451 74.7201C182.275 74.2016 181.214 73.4544 180.329 72.5218C179.444 71.5892 178.752 70.4897 178.294 69.2872C177.836 68.0847 177.621 66.803 177.661 65.5165C177.615 62.9119 178.601 60.3951 180.402 58.5164C182.203 56.6377 184.672 55.5499 187.271 55.4906C188.556 55.515 189.822 55.8068 190.989 56.3476C192.155 56.8884 193.197 57.6663 194.047 58.6319C194.723 59.215 195.605 59.7229 196.487 58.9329L200.992 54.6065C201.216 54.4686 201.408 54.2852 201.557 54.0681C201.706 53.851 201.807 53.6051 201.855 53.3462C201.902 53.0874 201.896 52.8214 201.834 52.5654C201.773 52.3094 201.659 52.0692 201.499 51.8602C199.791 49.6441 197.589 47.859 195.07 46.6473C192.551 45.4356 189.783 44.8309 186.99 44.8815C181.51 44.9002 176.255 47.0683 172.35 50.9216C168.445 54.7748 166.201 60.0069 166.098 65.4977Z" fill="white"/>
</g>
<defs>
<clipPath id="clip0_3765_1394">
<rect width="214" height="111" fill="white"/>
</clipPath>
</defs>
</svg>
