<svg id="Layer_1" data-name="Layer 1" xmlns="http://www.w3.org/2000/svg" viewBox="0 0 18.09 20.48"><defs><style>.cls-1{fill:#fff;fill-rule:evenodd;}</style></defs><title>g-play-icon-white</title><g id="PERSONAL-BANKING_Debit" data-name="PERSONAL-BANKING Debit"><g id="Page-1"><path id="Fill-1" class="cls-1" d="M10,10.19.09,20A1,1,0,0,1,0,19.57V1A1.21,1.21,0,0,1,.14.42L10,10.19" transform="translate(0 0)"/><path id="Fill-3" class="cls-1" d="M10.61,10.82l2.63,2.67-.38.22-7,4.05L1.44,20.31a1.27,1.27,0,0,1-.56.17l9.73-9.66" transform="translate(0 0)"/><path id="Fill-5" class="cls-1" d="M1,0a1,1,0,0,1,.6.17l3.47,2,8,4.62.16.1L10.59,9.54,1,0" transform="translate(0 0)"/><path id="Fill-7" class="cls-1" d="M14.07,13l-2.8-2.77,2.8-2.84,1.38.8,2.09,1.2a1.44,1.44,0,0,1,.25.18.83.83,0,0,1,0,1.28,2.35,2.35,0,0,1-.37.24c-1.08.63-2.17,1.25-3.26,1.87l-.08,0" transform="translate(0 0)"/></g></g></svg>