<svg id="Layer_1" width="48" height="48" data-name="Layer 1" xmlns="http://www.w3.org/2000/svg" viewBox="0 0 37.07 35.99"><path d="M26.16,29.57l4.41-4.41a4,4,0,0,0,.75-4.62l-.25-.5a4,4,0,0,1,.75-4.61L37.28,10a1,1,0,0,1,1.42,0,.93.93,0,0,1,.18.26l2.21,4.42a8.76,8.76,0,0,1-1.64,10.12l-12,12a10.85,10.85,0,0,1-11.11,2.62l-4.83-1.6a1,1,0,0,1-.63-1.27,1,1,0,0,1,.24-.39l5.31-5.3A4,4,0,0,1,21,30.07l.5.25A4,4,0,0,0,26.16,29.57Z" transform="translate(-4.95 -3.95)" fill="#e12c14" fill-rule="evenodd"/><path d="M28.3,12l-.39,4A10,10,0,0,0,17,26.89l-4,.37A14,14,0,0,1,28.3,12ZM29,4l-.37,4A18,18,0,0,0,9,27.6L5,28A22,22,0,0,1,29,4Z" transform="translate(-4.95 -3.95)" fill="#102957" opacity="0.3" style="isolation:isolate"/></svg>