<svg width="46" height="46" id="Layer_1" data-name="Layer 1" xmlns="http://www.w3.org/2000/svg" viewBox="0 0 38.64 38.07"><rect x="12.46" y="6.71" width="14.38" height="8.62" fill="#102957" opacity="0.25" style="isolation:isolate"/><path d="M42.47,18.15V35.46A6.44,6.44,0,0,1,36,41.9H10.27a6.44,6.44,0,0,1-6.44-6.44V18.15A2.73,2.73,0,0,1,5,15.9l4.71-3.28a.92.92,0,1,1,1,1.51L6.06,17.41a.91.91,0,0,0-.39.73A2.58,2.58,0,0,1,6.59,18a2.72,2.72,0,0,1,1.4.38l15.16,8.92,15.16-8.92a2.72,2.72,0,0,1,2.32-.22.89.89,0,0,0-.39-.73l-4.57-3.18a.92.92,0,1,1,1.06-1.51l4.56,3.18A2.73,2.73,0,0,1,42.47,18.15Z" transform="translate(-3.83 -3.83)" fill="#e12c14" fill-rule="evenodd"/><path d="M32.58,3.83a4.6,4.6,0,0,1,4.6,4.6v9.2l-13.8,8.28L9.58,17.63V8.43a4.6,4.6,0,0,1,4.6-4.6ZM28.9,16.71h-11a.92.92,0,0,0,0,1.84h11a.92.92,0,0,0,0-1.84Zm0-5.52h-11a.92.92,0,0,0,0,1.84h11a.92.92,0,1,0,0-1.84Z" transform="translate(-3.83 -3.83)" fill="#f4edec" fill-rule="evenodd"/></svg>