<svg width="38" height="34" viewBox="0 0 38 34" fill="none" xmlns="http://www.w3.org/2000/svg">
<path d="M34.4375 16.75H28.5V12C28.5 9.40234 30.5781 7.25 33.25 7.25H33.8438C34.8086 7.25 35.625 6.50781 35.625 5.46875V1.90625C35.625 0.941406 34.8086 0.125 33.8438 0.125H33.25C26.6445 0.125 21.375 5.46875 21.375 12V29.8125C21.375 31.8164 22.9336 33.375 24.9375 33.375H34.4375C36.3672 33.375 38 31.8164 38 29.8125V20.3125C38 18.3828 36.3672 16.75 34.4375 16.75ZM13.0625 16.75H7.125V12C7.125 9.40234 9.20312 7.25 11.875 7.25H12.4688C13.4336 7.25 14.25 6.50781 14.25 5.46875V1.90625C14.25 0.941406 13.4336 0.125 12.4688 0.125H11.875C5.26953 0.125 0 5.46875 0 12V29.8125C0 31.8164 1.55859 33.375 3.5625 33.375H13.0625C14.9922 33.375 16.625 31.8164 16.625 29.8125V20.3125C16.625 18.3828 14.9922 16.75 13.0625 16.75Z" fill="#E12C14"/>
</svg>
