<svg id="Group_387" data-name="Group 387" xmlns="http://www.w3.org/2000/svg" xmlns:xlink="http://www.w3.org/1999/xlink" width="40.29" height="37.445" viewBox="0 0 40.29 37.445">
  <defs>
    <clipPath id="clip-path">
      <rect id="Rectangle_1584" data-name="Rectangle 1584" width="40.29" height="37.445" fill="none"/>
    </clipPath>
    <clipPath id="clip-path-2">
      <rect id="Rectangle_1583" data-name="Rectangle 1583" width="40.29" height="37.445" transform="translate(0 0)" fill="none"/>
    </clipPath>
    <clipPath id="clip-path-3">
      <rect id="Rectangle_1582" data-name="Rectangle 1582" width="33.339" height="32.332" transform="translate(6.951)" fill="none"/>
    </clipPath>
  </defs>
  <g id="Group_386" data-name="Group 386" clip-path="url(#clip-path)">
    <path id="Path_865" data-name="Path 865" d="M3.552,27.646v8.592l8.3-8.3Z" fill="#e12d14" fill-rule="evenodd"/>
    <g id="Group_385" data-name="Group 385">
      <g id="Group_384" data-name="Group 384" clip-path="url(#clip-path-2)">
        <path id="Path_866" data-name="Path 866" d="M3.552,27.646v8.592l8.3-8.3Z" fill="none" stroke="#fff" stroke-miterlimit="10" stroke-width="1"/>
        <g id="Group_383" data-name="Group 383" opacity="0.3" style="isolation: isolate">
          <g id="Group_382" data-name="Group 382">
            <g id="Group_381" data-name="Group 381" clip-path="url(#clip-path-3)">
              <path id="Path_867" data-name="Path 867" d="M34.6.75H12.641A4.942,4.942,0,0,0,7.7,5.691V19.246a4.942,4.942,0,0,0,4.94,4.941H29.652l6.336,6.335V23.965a4.926,4.926,0,0,0,3.552-4.719V5.691A4.941,4.941,0,0,0,34.6.75Z" fill="none" stroke="#102957" stroke-miterlimit="10" stroke-width="1.5"/>
            </g>
          </g>
        </g>
        <path id="Path_868" data-name="Path 868" d="M4.621,6.464h22.6a4.621,4.621,0,0,1,4.621,4.621V25.279A4.621,4.621,0,0,1,27.218,29.9H4.621A4.621,4.621,0,0,1,0,25.279V11.085A4.621,4.621,0,0,1,4.621,6.464" fill="#e12d14"/>
        <path id="Path_869" data-name="Path 869" d="M7.311,15.925A1.813,1.813,0,1,1,5.5,17.738a1.813,1.813,0,0,1,1.813-1.813" fill="#fff"/>
        <path id="Path_870" data-name="Path 870" d="M15.92,15.925a1.813,1.813,0,1,1-1.813,1.813,1.813,1.813,0,0,1,1.813-1.813" fill="#fff"/>
        <path id="Path_871" data-name="Path 871" d="M24.529,15.925a1.813,1.813,0,1,1-1.813,1.813,1.813,1.813,0,0,1,1.813-1.813" fill="#fff"/>
      </g>
    </g>
  </g>
</svg>
