<svg xmlns="http://www.w3.org/2000/svg" width="25.09" height="25.091" viewBox="0 0 25.09 25.091">
  <g id="Group_224" data-name="Group 224" transform="translate(0 0)">
    <path id="Path_1848" data-name="Path 1848" d="M145.989,18.144c3.35,0,3.746.013,5.069.073a6.941,6.941,0,0,1,2.329.432,4.154,4.154,0,0,1,2.381,2.381,6.942,6.942,0,0,1,.432,2.329c.06,1.323.073,1.72.073,5.069s-.013,3.746-.073,5.069a6.942,6.942,0,0,1-.432,2.33,4.154,4.154,0,0,1-2.381,2.381,6.943,6.943,0,0,1-2.329.432c-1.323.06-1.719.073-5.069.073s-3.747-.013-5.069-.073a6.943,6.943,0,0,1-2.329-.432,4.155,4.155,0,0,1-2.381-2.381,6.941,6.941,0,0,1-.432-2.329c-.06-1.323-.073-1.72-.073-5.069s.013-3.746.073-5.069a6.941,6.941,0,0,1,.432-2.329,4.154,4.154,0,0,1,2.381-2.381,6.941,6.941,0,0,1,2.329-.432c1.323-.06,1.72-.073,5.069-.073m0-2.26c-3.407,0-3.834.014-5.172.075a9.208,9.208,0,0,0-3.045.583,6.415,6.415,0,0,0-3.669,3.669,9.208,9.208,0,0,0-.583,3.045c-.061,1.338-.076,1.765-.076,5.172s.014,3.834.076,5.172a9.208,9.208,0,0,0,.583,3.045,6.415,6.415,0,0,0,3.669,3.669,9.208,9.208,0,0,0,3.045.583c1.338.061,1.765.075,5.172.075s3.834-.014,5.172-.075a9.208,9.208,0,0,0,3.045-.583,6.415,6.415,0,0,0,3.669-3.669,9.209,9.209,0,0,0,.583-3.045c.061-1.338.076-1.765.076-5.172s-.014-3.834-.076-5.172a9.209,9.209,0,0,0-.583-3.045,6.415,6.415,0,0,0-3.669-3.669,9.208,9.208,0,0,0-3.045-.583c-1.338-.061-1.765-.075-5.172-.075Z" transform="translate(-133.444 -15.884)" fill="#fff"/>
    <path id="Path_1849" data-name="Path 1849" d="M262.442,138.439a6.442,6.442,0,1,0,6.442,6.442A6.442,6.442,0,0,0,262.442,138.439Zm0,10.624a4.182,4.182,0,1,1,4.182-4.182A4.182,4.182,0,0,1,262.442,149.063Z" transform="translate(-249.897 -132.336)" fill="#fff"/>
    <ellipse id="Ellipse_12" data-name="Ellipse 12" cx="1.505" cy="1.505" rx="1.505" ry="1.505" transform="translate(17.736 4.343)" fill="#fff"/>
  </g>
</svg>
