<?xml version="1.0" encoding="UTF-8"?><svg id="a" xmlns="http://www.w3.org/2000/svg" width="170" height="67.85" viewBox="0 0 170 67.85"><path d="M116.41,23.59c.08-.25,.34-.51,.59-.51l3.99-.76c1.36-.25,1.53-1.02,.34-1.7l-3.48-2.03c-.25-.17-.34-.42-.34-.68l.59-4.07c.17-1.36-.51-1.78-1.53-.85l-3.05,2.71c-.17,.17-.51,.25-.76,.08l-3.65-1.78c-1.27-.59-1.78-.08-1.27,1.19l1.61,3.73c.08,.25,0,.59-.17,.76l-2.8,2.97c-.93,1.02-.59,1.7,.76,1.61l4.07-.42c.25,0,.59,.17,.68,.34l1.95,3.56c.68,1.19,1.44,1.1,1.7-.25l.76-3.9Zm-72.32,3.99c.34,1.36,1.1,1.44,1.7,.25l1.95-3.56c.08-.25,.42-.42,.68-.34l4.07,.42c1.36,.17,1.7-.59,.76-1.61l-2.8-2.97c-.17-.17-.25-.51-.17-.76l1.61-3.73c.59-1.27,0-1.78-1.27-1.19l-3.73,1.7c-.25,.08-.59,.08-.76-.08l-3.05-2.71c-1.02-.93-1.78-.51-1.53,.85l.59,4.07c0,.25-.08,.59-.34,.68l-3.48,2.03c-1.19,.68-1.02,1.53,.34,1.7l3.99,.68c.25,.08,.51,.25,.59,.51l.85,4.07Zm-1.53,37.99c0,.76,.68,1.44,1.44,1.44h6.44c.76,0,1.44-.68,1.44-1.44v-27.98c0-.85-.68-1.44-1.44-1.44h-6.44c-.76,0-1.44,.59-1.44,1.44v27.98Zm35.7,1.44c.25,.42,.59,.76,1.36,.76h.42c.68,0,1.1-.42,1.36-.76l14.07-29.08c.51-1.02,.08-1.87-1.1-1.87h-6.02c-.85,0-1.44,.08-1.87,.85l-6.7,14.41h-.17l-6.27-14.41c-.25-.42-.59-.85-1.36-.85h-6.7c-1.19,0-1.53,.85-1.1,1.87l14.07,29.08Zm29.51-1.44c0,.76,.68,1.44,1.44,1.44h6.44c.76,0,1.44-.68,1.44-1.44v-27.98c0-.85-.68-1.44-1.44-1.44h-6.44c-.76,0-1.44,.59-1.44,1.44v27.98ZM0,51.57c0,9.33,7.63,16.28,16.45,16.28,5.51,0,9.58-2.37,12.21-6.53,.51-.76,.25-1.53-.51-2.2l-3.31-2.8c-.59-.42-1.36-.34-1.95,.25-1.36,1.36-2.88,2.97-6.19,2.97-4.15,0-7.55-3.48-7.55-7.89s3.39-7.89,7.55-7.89c2.2,0,4.07,1.1,5.34,2.46,.51,.42,1.27,.85,1.95,.25l3.56-3.39c.76-.51,.93-1.44,.42-2.2-2.97-3.56-6.7-5.51-11.45-5.51-8.65-.08-16.53,7.04-16.53,16.19Zm131.17,0c0,9.33,7.63,16.28,16.45,16.28,5.51,0,9.58-2.37,12.21-6.53,.51-.76,.25-1.53-.51-2.2l-3.31-2.88c-.59-.42-1.36-.34-1.95,.25-1.36,1.36-2.88,2.97-6.19,2.97-4.15,0-7.55-3.48-7.55-7.89s3.39-7.89,7.55-7.89c2.2,0,4.07,1.1,5.34,2.46,.51,.42,1.27,.85,1.95,.25l3.56-3.39c.76-.51,.93-1.44,.42-2.2-2.97-3.56-6.7-5.51-11.45-5.51-8.73,0-16.53,7.12-16.53,16.28Zm-14.75-27.98c.08-.25,.34-.51,.59-.51l3.99-.76c1.36-.25,1.53-1.02,.34-1.7l-3.48-2.03c-.25-.17-.34-.42-.34-.68l.59-4.07c.17-1.36-.51-1.78-1.53-.85l-3.05,2.71c-.17,.17-.51,.25-.76,.08l-3.65-1.78c-1.27-.59-1.78-.08-1.27,1.19l1.61,3.73c.08,.25,0,.59-.17,.76l-2.8,2.97c-.93,1.02-.59,1.7,.76,1.61l4.07-.42c.25,0,.59,.17,.68,.34l1.95,3.56c.68,1.19,1.44,1.1,1.7-.25l.76-3.9Zm-72.32,3.99c.34,1.36,1.1,1.44,1.7,.25l1.95-3.56c.08-.25,.42-.42,.68-.34l4.07,.42c1.36,.17,1.7-.59,.76-1.61l-2.8-2.97c-.17-.17-.25-.51-.17-.76l1.61-3.73c.59-1.27,0-1.78-1.27-1.19l-3.73,1.7c-.25,.08-.59,.08-.76-.08l-3.05-2.71c-1.02-.93-1.78-.51-1.53,.85l.59,4.07c0,.25-.08,.59-.34,.68l-3.48,2.03c-1.19,.68-1.02,1.53,.34,1.7l3.99,.68c.25,.08,.51,.25,.59,.51l.85,4.07ZM0,51.57c0,9.33,7.63,16.28,16.45,16.28,5.51,0,9.58-2.37,12.21-6.53,.51-.76,.25-1.53-.51-2.2l-3.31-2.8c-.59-.42-1.36-.34-1.95,.25-1.36,1.36-2.88,2.97-6.19,2.97-4.15,0-7.55-3.48-7.55-7.89s3.39-7.89,7.55-7.89c2.2,0,4.07,1.1,5.34,2.46,.51,.42,1.27,.85,1.95,.25l3.56-3.39c.76-.51,.93-1.44,.42-2.2-2.97-3.56-6.7-5.51-11.45-5.51-8.65-.08-16.53,7.04-16.53,16.19Zm42.56,13.99c0,.76,.68,1.44,1.44,1.44h6.44c.76,0,1.44-.68,1.44-1.44v-27.98c0-.85-.68-1.44-1.44-1.44h-6.44c-.76,0-1.44,.59-1.44,1.44v27.98Zm35.7,1.44c.25,.42,.59,.76,1.36,.76h.42c.68,0,1.1-.42,1.36-.76l14.07-29.08c.51-1.02,.08-1.87-1.1-1.87h-6.02c-.85,0-1.44,.08-1.87,.85l-6.7,14.41h-.17l-6.27-14.41c-.25-.42-.59-.85-1.36-.85h-6.7c-1.19,0-1.53,.85-1.1,1.87l14.07,29.08Zm29.51-1.44c0,.76,.68,1.44,1.44,1.44h6.44c.76,0,1.44-.68,1.44-1.44v-27.98c0-.85-.68-1.44-1.44-1.44h-6.44c-.76,0-1.44,.59-1.44,1.44v27.98Zm23.4-13.99c0,9.33,7.63,16.28,16.45,16.28,5.51,0,9.58-2.37,12.21-6.53,.51-.76,.25-1.53-.51-2.2l-3.31-2.88c-.59-.42-1.36-.34-1.95,.25-1.36,1.36-2.88,2.97-6.19,2.97-4.15,0-7.55-3.48-7.55-7.89s3.39-7.89,7.55-7.89c2.2,0,4.07,1.1,5.34,2.46,.51,.42,1.27,.85,1.95,.25l3.56-3.39c.76-.51,.93-1.44,.42-2.2-2.97-3.56-6.7-5.51-11.45-5.51-8.73,0-16.53,7.12-16.53,16.28ZM85.21,14.27c.34,1.36-.25,1.78-1.44,1.02l-3.39-2.29c-.25-.17-.59-.17-.76,0l-3.39,2.29c-1.19,.76-1.78,.34-1.44-1.02l1.1-3.9c.08-.25,0-.59-.25-.76l-3.22-2.54c-1.1-.85-.85-1.61,.51-1.7l4.07-.17c.25,0,.51-.25,.59-.42l1.44-3.82c.51-1.27,1.27-1.27,1.78,0l1.44,3.82c.08,.25,.34,.42,.59,.42l4.07,.17c1.36,.08,1.61,.85,.51,1.7l-3.22,2.54c-.17,.17-.34,.51-.25,.76l1.27,3.9Zm31.2,9.33c.08-.25,.34-.51,.59-.51l3.99-.76c1.36-.25,1.53-1.02,.34-1.7l-3.48-2.03c-.25-.17-.34-.42-.34-.68l.59-4.07c.17-1.36-.51-1.78-1.53-.85l-3.05,2.71c-.17,.17-.51,.25-.76,.08l-3.65-1.78c-1.27-.59-1.78-.08-1.27,1.19l1.61,3.73c.08,.25,0,.59-.17,.76l-2.8,2.97c-.93,1.02-.59,1.7,.76,1.61l4.07-.42c.25,0,.59,.17,.68,.34l1.95,3.56c.68,1.19,1.44,1.1,1.7-.25l.76-3.9Zm-72.32,3.99c.34,1.36,1.1,1.44,1.7,.25l1.95-3.56c.08-.25,.42-.42,.68-.34l4.07,.42c1.36,.17,1.7-.59,.76-1.61l-2.8-2.97c-.17-.17-.25-.51-.17-.76l1.61-3.73c.59-1.27,0-1.78-1.27-1.19l-3.73,1.7c-.25,.08-.59,.08-.76-.08l-3.05-2.71c-1.02-.93-1.78-.51-1.53,.85l.59,4.07c0,.25-.08,.59-.34,.68l-3.48,2.03c-1.19,.68-1.02,1.53,.34,1.7l3.99,.68c.25,.08,.51,.25,.59,.51l.85,4.07Zm-1.53,37.99c0,.76,.68,1.44,1.44,1.44h6.44c.76,0,1.44-.68,1.44-1.44v-27.98c0-.85-.68-1.44-1.44-1.44h-6.44c-.76,0-1.44,.59-1.44,1.44v27.98Zm35.7,1.44c.25,.42,.59,.76,1.36,.76h.42c.68,0,1.1-.42,1.36-.76l14.07-29.08c.51-1.02,.08-1.87-1.1-1.87h-6.02c-.85,0-1.44,.08-1.87,.85l-6.7,14.41h-.17l-6.27-14.41c-.25-.42-.59-.85-1.36-.85h-6.7c-1.19,0-1.53,.85-1.1,1.87l14.07,29.08Zm29.51-1.44c0,.76,.68,1.44,1.44,1.44h6.44c.76,0,1.44-.68,1.44-1.44v-27.98c0-.85-.68-1.44-1.44-1.44h-6.44c-.76,0-1.44,.59-1.44,1.44v27.98ZM0,51.57c0,9.33,7.63,16.28,16.45,16.28,5.51,0,9.58-2.37,12.21-6.53,.51-.76,.25-1.53-.51-2.2l-3.31-2.8c-.59-.42-1.36-.34-1.95,.25-1.36,1.36-2.88,2.97-6.19,2.97-4.15,0-7.55-3.48-7.55-7.89s3.39-7.89,7.55-7.89c2.2,0,4.07,1.1,5.34,2.46,.51,.42,1.27,.85,1.95,.25l3.56-3.39c.76-.51,.93-1.44,.42-2.2-2.97-3.56-6.7-5.51-11.45-5.51-8.65-.08-16.53,7.04-16.53,16.19Zm131.17,0c0,9.33,7.63,16.28,16.45,16.28,5.51,0,9.58-2.37,12.21-6.53,.51-.76,.25-1.53-.51-2.2l-3.31-2.88c-.59-.42-1.36-.34-1.95,.25-1.36,1.36-2.88,2.97-6.19,2.97-4.15,0-7.55-3.48-7.55-7.89s3.39-7.89,7.55-7.89c2.2,0,4.07,1.1,5.34,2.46,.51,.42,1.27,.85,1.95,.25l3.56-3.39c.76-.51,.93-1.44,.42-2.2-2.97-3.56-6.7-5.51-11.45-5.51-8.73,0-16.53,7.12-16.53,16.28Z" fill="#e12c14"/><path d="M165.76,36.14v.42h-1.19v3.14h-.51v-3.14h-1.19v-.42h2.88Zm1.36,0l1.1,2.8,1.1-2.8h.68v3.56h-.42v-3.05l-1.1,3.05h-.42l-1.19-3.05v3.05h-.42v-3.56h.68Z" fill="#e12c14"/></svg>