<svg id="Layer_1" data-name="Layer 1" xmlns="http://www.w3.org/2000/svg" viewBox="0 0 544 256"><defs><style>.cls-1{fill:#a8b3d2;}</style></defs><title>ncua</title><path class="cls-1" d="M0,256V0H544V256Zm542-2v0ZM4,252H540V4H4V252Z"/><path class="cls-1" d="M21.88,235V22H523V235ZM520,232v0ZM27.87,229H517V28H27.87V229Z"/><path class="cls-1" d="M111.75,40.08h0l1.6-4.41h2.5l-3,6.93v4.49h-2.31V42.6l-3-6.93h2.6Z"/><path class="cls-1" d="M115.51,40.84a3.91,3.91,0,0,1,.57-1.42,2.52,2.52,0,0,1,1-.86,3.79,3.79,0,0,1,1.59-.3,4.14,4.14,0,0,1,1.65.26,2.32,2.32,0,0,1,1,.86A3.8,3.8,0,0,1,122,40.8a11.53,11.53,0,0,1,.16,2,9.52,9.52,0,0,1-.18,2,3.82,3.82,0,0,1-.58,1.42,2.46,2.46,0,0,1-1,.84,4.21,4.21,0,0,1-1.6.27,4.13,4.13,0,0,1-1.64-.25,2.2,2.2,0,0,1-1-.83,3.78,3.78,0,0,1-.55-1.43,11.46,11.46,0,0,1-.16-2A9.38,9.38,0,0,1,115.51,40.84ZM117.57,44a4,4,0,0,0,.15,1,1.38,1.38,0,0,0,.36.63.91.91,0,0,0,.64.22.93.93,0,0,0,.93-.7,7.49,7.49,0,0,0,.26-2.32,7.44,7.44,0,0,0-.26-2.32.94.94,0,0,0-.93-.71.91.91,0,0,0-.64.23,1.34,1.34,0,0,0-.36.62,4.21,4.21,0,0,0-.15,1c0,.37,0,.78,0,1.22S117.55,43.63,117.57,44Z"/><path class="cls-1" d="M127.84,46.08a2.08,2.08,0,0,1-.91.92,2.9,2.9,0,0,1-1.28.27,2.27,2.27,0,0,1-1.62-.55,2.51,2.51,0,0,1-.57-1.85V38.48h2.21v5.94a1.49,1.49,0,0,0,.22.94.92.92,0,0,0,.72.26c.78,0,1.17-.48,1.17-1.42V38.48H130v8.61h-2.11v-1Z"/><path class="cls-1" d="M133.73,38.48v1.16h0a3.17,3.17,0,0,1,.82-1,1.79,1.79,0,0,1,1.17-.38h.2l.2,0V40.4l-.35,0h-.34a2.38,2.38,0,0,0-.58.08,1.36,1.36,0,0,0-.52.27,1.33,1.33,0,0,0-.39.48,1.71,1.71,0,0,0-.14.72v5.17h-2.21V38.48Z"/><path class="cls-1" d="M142.72,44.56a1.33,1.33,0,0,0,.3.91,1.07,1.07,0,0,0,.86.34,1.21,1.21,0,0,0,.81-.25,1,1,0,0,0,.31-.77.79.79,0,0,0-.24-.63,1.89,1.89,0,0,0-.56-.35l-1.56-.56a2.94,2.94,0,0,1-1.37-.9,2.34,2.34,0,0,1-.47-1.5,2.81,2.81,0,0,1,.18-1,2.07,2.07,0,0,1,.56-.82,2.74,2.74,0,0,1,1-.56,4.44,4.44,0,0,1,1.45-.21,3.28,3.28,0,0,1,2.23.64,2.3,2.3,0,0,1,.72,1.81v.35h-2a1.76,1.76,0,0,0-.21-1,.87.87,0,0,0-.76-.32,1.16,1.16,0,0,0-.73.24.79.79,0,0,0-.31.69.89.89,0,0,0,.2.58,1.52,1.52,0,0,0,.76.43l1.32.45a3,3,0,0,1,1.48.92,2.54,2.54,0,0,1,.43,1.54,2.72,2.72,0,0,1-.24,1.19,2.21,2.21,0,0,1-.67.84,2.39,2.39,0,0,1-1,.48,5.19,5.19,0,0,1-1.29.15,5.64,5.64,0,0,1-1.55-.18,2.21,2.21,0,0,1-1-.53,1.94,1.94,0,0,1-.51-.85,4.37,4.37,0,0,1-.14-1.13v-.3h2Z"/><path class="cls-1" d="M148.36,40.92a2.92,2.92,0,0,1,.24-1.26,2.19,2.19,0,0,1,.64-.82,2.81,2.81,0,0,1,1-.44,4.49,4.49,0,0,1,1.18-.14,5.42,5.42,0,0,1,1.6.19,2.15,2.15,0,0,1,.94.55,1.74,1.74,0,0,1,.46.84,4.41,4.41,0,0,1,.12,1.06v4.53a5.65,5.65,0,0,0,.06.94,3.05,3.05,0,0,0,.21.72h-2.11a1.67,1.67,0,0,1-.17-.44c0-.15-.07-.31-.1-.45h0a2,2,0,0,1-.89.87,3.68,3.68,0,0,1-1.31.2,2.18,2.18,0,0,1-1-.2,1.72,1.72,0,0,1-.64-.55,2.41,2.41,0,0,1-.35-.8,3.26,3.26,0,0,1-.12-.87,4.07,4.07,0,0,1,.13-1.05,2.23,2.23,0,0,1,.39-.75,2.12,2.12,0,0,1,.68-.52,5.45,5.45,0,0,1,1-.37l1.25-.33a1.47,1.47,0,0,0,.69-.35,1,1,0,0,0,.19-.66,1.23,1.23,0,0,0-.23-.78,1,1,0,0,0-.8-.28.91.91,0,0,0-.76.31,1.16,1.16,0,0,0-.26.81v.24h-2Zm3.55,2.15a2.79,2.79,0,0,1-.47.15,1.81,1.81,0,0,0-1,.48,1.36,1.36,0,0,0-.28.91,1.75,1.75,0,0,0,.19.85.68.68,0,0,0,.64.35,1.51,1.51,0,0,0,.46-.07,1.42,1.42,0,0,0,.44-.23,1.4,1.4,0,0,0,.33-.42,1.28,1.28,0,0,0,.13-.61V42.79A2.31,2.31,0,0,1,151.91,43.07Z"/><path class="cls-1" d="M162.52,38.48l-2.16,8.61H157.8l-2.23-8.61h2.31l1.23,6.16h0l1.17-6.16Z"/><path class="cls-1" d="M165.78,35.54v1.89h-2.21V35.54Zm0,2.94v8.61h-2.21V38.48Z"/><path class="cls-1" d="M169.6,38.48v1h0a2.1,2.1,0,0,1,.91-.93,2.66,2.66,0,0,1,1.28-.3,2.16,2.16,0,0,1,1.62.58,2.57,2.57,0,0,1,.57,1.87v6.38h-2.21V41.16a1.49,1.49,0,0,0-.22-.94.88.88,0,0,0-.72-.26c-.78,0-1.17.47-1.17,1.42v5.71h-2.21V38.48Z"/><path class="cls-1" d="M182.1,46.66a3.47,3.47,0,0,1-.82,2.5,3.81,3.81,0,0,1-2.76.83,3.42,3.42,0,0,1-2.17-.6,2,2,0,0,1-.76-1.71h2.11a.76.76,0,0,0,.34.66,1.83,1.83,0,0,0,.34.18,1.23,1.23,0,0,0,.39.06,1,1,0,0,0,.95-.43,2,2,0,0,0,.27-1.07V45.94h0a2.65,2.65,0,0,1-.83.77,2,2,0,0,1-1,.29,2.23,2.23,0,0,1-2-1,6.38,6.38,0,0,1-.66-3.36,13.3,13.3,0,0,1,.08-1.53,4.7,4.7,0,0,1,.37-1.42,2.59,2.59,0,0,1,.82-1,2.29,2.29,0,0,1,1.43-.4A2,2,0,0,1,180,39.44h0v-1h2.11Zm-4.38-2.75a3,3,0,0,0,.16.71,1.3,1.3,0,0,0,.34.5.85.85,0,0,0,.57.18.91.91,0,0,0,.58-.18,1.3,1.3,0,0,0,.37-.51,3,3,0,0,0,.19-.77,7.79,7.79,0,0,0,.06-1,7.16,7.16,0,0,0-.25-2.23.9.9,0,0,0-.9-.65,1,1,0,0,0-.6.16,1,1,0,0,0-.35.52,4.07,4.07,0,0,0-.17,1c0,.4,0,.88,0,1.46C177.68,43.36,177.7,43.64,177.72,43.91Z"/><path class="cls-1" d="M185.43,44.56a1.38,1.38,0,0,0,.29.91,1.08,1.08,0,0,0,.86.34,1.21,1.21,0,0,0,.81-.25,1,1,0,0,0,.31-.77.79.79,0,0,0-.24-.63,1.89,1.89,0,0,0-.56-.35l-1.55-.56a2.92,2.92,0,0,1-1.38-.9,2.33,2.33,0,0,1-.46-1.5,3,3,0,0,1,.17-1,2.18,2.18,0,0,1,.56-.82,2.79,2.79,0,0,1,1-.56,4.4,4.4,0,0,1,1.45-.21,3.25,3.25,0,0,1,2.22.64,2.3,2.3,0,0,1,.72,1.81v.35h-2a1.75,1.75,0,0,0-.22-1,.86.86,0,0,0-.76-.32,1.16,1.16,0,0,0-.73.24.79.79,0,0,0-.31.69,1,1,0,0,0,.2.58,1.56,1.56,0,0,0,.76.43l1.33.45a3,3,0,0,1,1.47.92,2.47,2.47,0,0,1,.43,1.54,2.72,2.72,0,0,1-.24,1.19,2.29,2.29,0,0,1-.66.84,2.49,2.49,0,0,1-1,.48,5.19,5.19,0,0,1-1.29.15,5.56,5.56,0,0,1-1.54-.18,2.25,2.25,0,0,1-1-.53,1.83,1.83,0,0,1-.5-.85,4,4,0,0,1-.15-1.13v-.3h2Z"/><path class="cls-1" d="M194.44,40V38.48h1.11v-1a2.79,2.79,0,0,1,.16-1,1.53,1.53,0,0,1,.46-.64,1.83,1.83,0,0,1,.73-.34,4.08,4.08,0,0,1,1-.11c.39,0,.79,0,1.18.05v1.57l-.22,0h-.21a1,1,0,0,0-.65.16.66.66,0,0,0-.2.53v.75H199V40h-1.28v7.1h-2.21V40Z"/><path class="cls-1" d="M201.86,43.81a4.56,4.56,0,0,0,.06.75,2.08,2.08,0,0,0,.18.64,1.16,1.16,0,0,0,.34.44.72.72,0,0,0,.51.17.88.88,0,0,0,.81-.4,3,3,0,0,0,.36-1.21h2a3.42,3.42,0,0,1-.8,2.28,3,3,0,0,1-2.32.79,3.74,3.74,0,0,1-1.87-.4,2.46,2.46,0,0,1-1-1.06,4.1,4.1,0,0,1-.4-1.47c0-.54-.07-1.09-.07-1.63a11.32,11.32,0,0,1,.12-1.67,4,4,0,0,1,.48-1.42,2.59,2.59,0,0,1,1-1,3.71,3.71,0,0,1,1.8-.37,3.43,3.43,0,0,1,1.57.31,2.43,2.43,0,0,1,1,.88,3.87,3.87,0,0,1,.48,1.38,12.27,12.27,0,0,1,.13,1.8v.49h-4.37Zm2.19-2.87a2.21,2.21,0,0,0-.17-.64.88.88,0,0,0-.33-.4,1,1,0,0,0-.55-.14.91.91,0,0,0-.56.16,1,1,0,0,0-.34.4,1.62,1.62,0,0,0-.18.55,3.08,3.08,0,0,0-.06.61v.33h2.26C204.1,41.48,204.08,41.19,204.05,40.94Z"/><path class="cls-1" d="M211.92,46.18a2.24,2.24,0,0,1-.82.85,2.42,2.42,0,0,1-1.13.24,2.19,2.19,0,0,1-2-1,6.86,6.86,0,0,1-.64-3.44,7,7,0,0,1,.64-3.47,2.16,2.16,0,0,1,2-1.06,2,2,0,0,1,1.06.26,2.49,2.49,0,0,1,.8.76h0V35.67h2.21V47.09H212v-.91Zm-2.17-1.27a1,1,0,0,0,1.89,0,7.55,7.55,0,0,0,.22-2.12,7.5,7.5,0,0,0-.22-2.12,1,1,0,0,0-1.89,0,8,8,0,0,0-.21,2.12A8,8,0,0,0,209.75,44.91Z"/><path class="cls-1" d="M217.59,43.81a4.57,4.57,0,0,0,0,.75,2.4,2.4,0,0,0,.19.64,1.14,1.14,0,0,0,.33.44.75.75,0,0,0,.51.17.89.89,0,0,0,.82-.4,2.91,2.91,0,0,0,.35-1.21h2a3.47,3.47,0,0,1-.8,2.28,3,3,0,0,1-2.32.79,3.78,3.78,0,0,1-1.88-.4,2.58,2.58,0,0,1-1-1.06,4.31,4.31,0,0,1-.39-1.47c0-.54-.07-1.09-.07-1.63A11.32,11.32,0,0,1,215.5,41a4,4,0,0,1,.48-1.42,2.52,2.52,0,0,1,1-1,3.69,3.69,0,0,1,1.79-.37,3.47,3.47,0,0,1,1.58.31,2.43,2.43,0,0,1,1,.88,3.87,3.87,0,0,1,.48,1.38,12.34,12.34,0,0,1,.12,1.8v.49h-4.36Zm2.19-2.87a2.21,2.21,0,0,0-.17-.64.84.84,0,0,0-.34-.4,1,1,0,0,0-.55-.14.88.88,0,0,0-.55.16,1,1,0,0,0-.34.4,1.88,1.88,0,0,0-.19.55,3.08,3.08,0,0,0,0,.61v.33h2.25Q219.83,41.32,219.78,40.94Z"/><path class="cls-1" d="M225.38,38.48v1.16h0a3,3,0,0,1,.82-1,1.78,1.78,0,0,1,1.16-.38h.2l.2,0V40.4l-.34,0h-.34a2.25,2.25,0,0,0-.58.08,1.4,1.4,0,0,0-.53.27,1.21,1.21,0,0,0-.38.48,1.57,1.57,0,0,0-.15.72v5.17h-2.2V38.48Z"/><path class="cls-1" d="M228.74,40.92a2.92,2.92,0,0,1,.24-1.26,2.12,2.12,0,0,1,.65-.82,2.65,2.65,0,0,1,1-.44,4.42,4.42,0,0,1,1.17-.14,5.38,5.38,0,0,1,1.6.19,2.19,2.19,0,0,1,.95.55,1.81,1.81,0,0,1,.45.84,4.41,4.41,0,0,1,.12,1.06v4.53a5.65,5.65,0,0,0,.06.94,3.61,3.61,0,0,0,.21.72H233a2.11,2.11,0,0,1-.17-.44c0-.15-.07-.31-.1-.45h0a1.94,1.94,0,0,1-.89.87,3.66,3.66,0,0,1-1.3.2,2.22,2.22,0,0,1-1-.2,1.72,1.72,0,0,1-.64-.55,2.41,2.41,0,0,1-.35-.8,3.24,3.24,0,0,1-.11-.87,4.1,4.1,0,0,1,.12-1.05,2,2,0,0,1,1.07-1.27,5.45,5.45,0,0,1,1-.37l1.25-.33a1.47,1.47,0,0,0,.69-.35,1,1,0,0,0,.19-.66,1.23,1.23,0,0,0-.23-.78,1,1,0,0,0-.79-.28.93.93,0,0,0-.77.31,1.21,1.21,0,0,0-.26.81v.24h-2Zm3.55,2.15a3,3,0,0,1-.46.15,1.73,1.73,0,0,0-1,.48,1.31,1.31,0,0,0-.29.91,1.75,1.75,0,0,0,.19.85.68.68,0,0,0,.64.35,1.51,1.51,0,0,0,.46-.07,1.42,1.42,0,0,0,.44-.23,1.14,1.14,0,0,0,.33-.42,1.28,1.28,0,0,0,.13-.61V42.79A2.31,2.31,0,0,1,232.29,43.07Z"/><path class="cls-1" d="M238.9,35.67V47.09h-2.21V35.67Z"/><path class="cls-1" d="M242.9,35.67V47.09h-2.21V35.67Z"/><path class="cls-1" d="M245.19,48.26a1.09,1.09,0,0,0,.87-.32,1.55,1.55,0,0,0,.31-.85L244,38.48h2.31l1.28,6h0l1.12-6h2.21l-2.08,8a17.31,17.31,0,0,1-.55,1.73,3.13,3.13,0,0,1-.63,1,1.78,1.78,0,0,1-.86.47,6.37,6.37,0,0,1-1.27.11h-.9V48.21A3.68,3.68,0,0,0,245.19,48.26Z"/><path class="cls-1" d="M258.16,35.54v1.89H256V35.54Zm0,2.94v8.61H256V38.48Z"/><path class="cls-1" d="M262,38.48v1h0a2.15,2.15,0,0,1,.91-.93,2.66,2.66,0,0,1,1.28-.3,2.14,2.14,0,0,1,1.62.58,2.57,2.57,0,0,1,.57,1.87v6.38h-2.21V41.16a1.49,1.49,0,0,0-.22-.94.88.88,0,0,0-.72-.26c-.78,0-1.17.47-1.17,1.42v5.71h-2.21V38.48Z"/><path class="cls-1" d="M269.65,44.56a1.33,1.33,0,0,0,.3.91,1,1,0,0,0,.85.34,1.24,1.24,0,0,0,.82-.25,1,1,0,0,0,.3-.77.79.79,0,0,0-.24-.63,1.89,1.89,0,0,0-.56-.35l-1.55-.56a2.92,2.92,0,0,1-1.38-.9,2.33,2.33,0,0,1-.46-1.5,2.81,2.81,0,0,1,.18-1,2,2,0,0,1,.56-.82,2.66,2.66,0,0,1,1-.56,4.4,4.4,0,0,1,1.45-.21,3.25,3.25,0,0,1,2.22.64,2.3,2.3,0,0,1,.72,1.81v.35h-2a1.67,1.67,0,0,0-.22-1,.86.86,0,0,0-.76-.32,1.16,1.16,0,0,0-.73.24.81.81,0,0,0-.31.69,1,1,0,0,0,.2.58,1.62,1.62,0,0,0,.76.43l1.33.45a3,3,0,0,1,1.47.92,2.47,2.47,0,0,1,.43,1.54,2.72,2.72,0,0,1-.24,1.19,2.29,2.29,0,0,1-.66.84,2.43,2.43,0,0,1-1,.48,5.19,5.19,0,0,1-1.29.15,5.61,5.61,0,0,1-1.54-.18,2.25,2.25,0,0,1-1-.53,1.92,1.92,0,0,1-.5-.85,4,4,0,0,1-.14-1.13v-.3h2Z"/><path class="cls-1" d="M279.68,46.08a2.13,2.13,0,0,1-.91.92,2.9,2.9,0,0,1-1.28.27,2.25,2.25,0,0,1-1.62-.55,2.51,2.51,0,0,1-.57-1.85V38.48h2.21v5.94a1.49,1.49,0,0,0,.22.94.92.92,0,0,0,.72.26c.78,0,1.17-.48,1.17-1.42V38.48h2.21v8.61h-2.12v-1Z"/><path class="cls-1" d="M285.57,38.48v1.16h0a3.17,3.17,0,0,1,.82-1,1.79,1.79,0,0,1,1.17-.38h.2l.2,0V40.4l-.35,0h-.34a2.32,2.32,0,0,0-.58.08,1.4,1.4,0,0,0-.53.27,1.31,1.31,0,0,0-.38.48,1.57,1.57,0,0,0-.14.72v5.17h-2.21V38.48Z"/><path class="cls-1" d="M290.83,43.81a4.56,4.56,0,0,0,.06.75,2.84,2.84,0,0,0,.18.64,1.27,1.27,0,0,0,.34.44.75.75,0,0,0,.51.17.9.9,0,0,0,.82-.4,2.91,2.91,0,0,0,.35-1.21h2a3.42,3.42,0,0,1-.8,2.28,3,3,0,0,1-2.32.79,3.74,3.74,0,0,1-1.87-.4,2.46,2.46,0,0,1-1-1.06,4.31,4.31,0,0,1-.39-1.47c-.05-.54-.07-1.09-.07-1.63a11.32,11.32,0,0,1,.12-1.67,4,4,0,0,1,.48-1.42,2.52,2.52,0,0,1,1-1,3.67,3.67,0,0,1,1.79-.37,3.5,3.5,0,0,1,1.58.31,2.34,2.34,0,0,1,1,.88,3.52,3.52,0,0,1,.48,1.38,11,11,0,0,1,.13,1.8v.49h-4.37Zm2.2-2.87a2.58,2.58,0,0,0-.17-.64.84.84,0,0,0-.34-.4,1,1,0,0,0-.55-.14.88.88,0,0,0-.55.16,1,1,0,0,0-.35.4,2.22,2.22,0,0,0-.18.55,3.08,3.08,0,0,0-.06.61v.33h2.26Q293.08,41.32,293,40.94Z"/><path class="cls-1" d="M300.9,46.18a2.26,2.26,0,0,1-.83.85,2.38,2.38,0,0,1-1.12.24,2.18,2.18,0,0,1-2-1,6.86,6.86,0,0,1-.64-3.44,7,7,0,0,1,.64-3.47,2.15,2.15,0,0,1,2-1.06,2,2,0,0,1,1.06.26,2.47,2.47,0,0,1,.79.76h0V35.67H303V47.09h-2.11v-.91Zm-2.17-1.27a.91.91,0,0,0,.94.71.92.92,0,0,0,.95-.71,8,8,0,0,0,.21-2.12,8,8,0,0,0-.21-2.12.91.91,0,0,0-.95-.71.9.9,0,0,0-.94.71,7.5,7.5,0,0,0-.22,2.12A7.55,7.55,0,0,0,298.73,44.91Z"/><path class="cls-1" d="M311.36,36v2.46h1.28V40h-1.28v4.65a1.33,1.33,0,0,0,.15.73.75.75,0,0,0,.64.22h.25l.24,0v1.53c-.24,0-.48,0-.71,0l-.73,0a5.06,5.06,0,0,1-1.05-.09,1,1,0,0,1-.62-.35,1.67,1.67,0,0,1-.3-.7,6.36,6.36,0,0,1-.08-1.08V40H308V38.48h1.12V36Z"/><path class="cls-1" d="M313.46,40.84a3.74,3.74,0,0,1,.57-1.42,2.52,2.52,0,0,1,1.05-.86,3.76,3.76,0,0,1,1.59-.3,4.2,4.2,0,0,1,1.65.26,2.32,2.32,0,0,1,1,.86,3.8,3.8,0,0,1,.55,1.42,11.53,11.53,0,0,1,.16,2,9.52,9.52,0,0,1-.18,2,3.82,3.82,0,0,1-.58,1.42,2.43,2.43,0,0,1-1.05.84A5.14,5.14,0,0,1,315,47a2.2,2.2,0,0,1-1-.83,3.78,3.78,0,0,1-.55-1.43,10.54,10.54,0,0,1-.16-2A9.38,9.38,0,0,1,313.46,40.84ZM315.52,44a4,4,0,0,0,.15,1,1.38,1.38,0,0,0,.36.63.91.91,0,0,0,.64.22.93.93,0,0,0,.93-.7,7.49,7.49,0,0,0,.26-2.32,7.44,7.44,0,0,0-.26-2.32.94.94,0,0,0-.93-.71A.91.91,0,0,0,316,40a1.34,1.34,0,0,0-.36.62,4.21,4.21,0,0,0-.15,1c0,.37,0,.78,0,1.22S315.5,43.63,315.52,44Z"/><path class="cls-1" d="M325.39,40.92a2.92,2.92,0,0,1,.24-1.26,2.22,2.22,0,0,1,.65-.82,2.65,2.65,0,0,1,1-.44,4.49,4.49,0,0,1,1.18-.14,5.42,5.42,0,0,1,1.6.19A2.15,2.15,0,0,1,331,39a1.82,1.82,0,0,1,.46.84,4.41,4.41,0,0,1,.12,1.06v4.53a7.33,7.33,0,0,0,0,.94,3.1,3.1,0,0,0,.22.72H329.7a1.67,1.67,0,0,1-.17-.44c0-.15-.07-.31-.11-.45h0a1.9,1.9,0,0,1-.89.87,3.62,3.62,0,0,1-1.3.2,2.25,2.25,0,0,1-1-.2,1.89,1.89,0,0,1-.64-.55,2.63,2.63,0,0,1-.35-.8,3.9,3.9,0,0,1,0-1.92,1.92,1.92,0,0,1,.39-.75,2.19,2.19,0,0,1,.67-.52,5.3,5.3,0,0,1,1-.37l1.24-.33a1.47,1.47,0,0,0,.69-.35,1,1,0,0,0,.19-.66,1.17,1.17,0,0,0-.23-.78,1,1,0,0,0-.79-.28.93.93,0,0,0-.77.31,1.21,1.21,0,0,0-.25.81v.24h-2ZM329,43.07a3.11,3.11,0,0,1-.47.15,1.73,1.73,0,0,0-1,.48,1.36,1.36,0,0,0-.29.91,1.87,1.87,0,0,0,.19.85.69.69,0,0,0,.64.35,1.58,1.58,0,0,0,.47-.07,1.54,1.54,0,0,0,.44-.23,1.24,1.24,0,0,0,.45-1V42.79A2,2,0,0,1,329,43.07Z"/><path class="cls-1" d="M336,36v2.46h1.28V40H336v4.65a1.33,1.33,0,0,0,.15.73.75.75,0,0,0,.64.22H337l.24,0v1.53c-.24,0-.48,0-.71,0l-.73,0a5.06,5.06,0,0,1-1.05-.09,1,1,0,0,1-.62-.35,1.67,1.67,0,0,1-.3-.7,6.36,6.36,0,0,1-.08-1.08V40h-1.12V38.48h1.12V36Z"/><path class="cls-1" d="M344.45,35.67V47.09h-2.21V35.67Z"/><path class="cls-1" d="M348.05,43.81a6,6,0,0,0,.05.75,2.4,2.4,0,0,0,.19.64,1.24,1.24,0,0,0,.33.44.76.76,0,0,0,.52.17.88.88,0,0,0,.81-.4,2.91,2.91,0,0,0,.35-1.21h2a3.42,3.42,0,0,1-.8,2.28,3,3,0,0,1-2.32.79,3.71,3.71,0,0,1-1.87-.4,2.55,2.55,0,0,1-1-1.06,4.31,4.31,0,0,1-.39-1.47c-.05-.54-.07-1.09-.07-1.63A11.32,11.32,0,0,1,346,41a4,4,0,0,1,.48-1.42,2.52,2.52,0,0,1,1-1,3.69,3.69,0,0,1,1.79-.37,3.47,3.47,0,0,1,1.58.31,2.43,2.43,0,0,1,1,.88,3.87,3.87,0,0,1,.48,1.38,12.27,12.27,0,0,1,.13,1.8v.49h-4.37Zm2.19-2.87a2.21,2.21,0,0,0-.17-.64.88.88,0,0,0-.33-.4,1.06,1.06,0,0,0-.56-.14.9.9,0,0,0-.55.16,1,1,0,0,0-.34.4,1.88,1.88,0,0,0-.19.55,4.07,4.07,0,0,0-.05.61v.33h2.25Q350.29,41.32,350.24,40.94Z"/><path class="cls-1" d="M353.71,40.92a2.92,2.92,0,0,1,.24-1.26,2.22,2.22,0,0,1,.65-.82,2.65,2.65,0,0,1,1-.44,4.49,4.49,0,0,1,1.18-.14,5.42,5.42,0,0,1,1.6.19,2.15,2.15,0,0,1,.94.55,1.82,1.82,0,0,1,.46.84,4.41,4.41,0,0,1,.12,1.06v4.53a5.86,5.86,0,0,0,.05.94,3.1,3.1,0,0,0,.22.72H358a1.67,1.67,0,0,1-.17-.44c0-.15-.07-.31-.11-.45h0a1.9,1.9,0,0,1-.89.87,3.62,3.62,0,0,1-1.3.2,2.25,2.25,0,0,1-1-.2,1.8,1.8,0,0,1-.64-.55,2.63,2.63,0,0,1-.35-.8,3.9,3.9,0,0,1,0-1.92,1.92,1.92,0,0,1,.39-.75,2.19,2.19,0,0,1,.67-.52,5.3,5.3,0,0,1,1-.37l1.24-.33a1.47,1.47,0,0,0,.69-.35,1,1,0,0,0,.19-.66,1.17,1.17,0,0,0-.23-.78,1,1,0,0,0-.79-.28.93.93,0,0,0-.77.31,1.21,1.21,0,0,0-.25.81v.24h-2Zm3.55,2.15a2.71,2.71,0,0,1-.46.15,1.73,1.73,0,0,0-1,.48,1.36,1.36,0,0,0-.29.91,1.87,1.87,0,0,0,.19.85.68.68,0,0,0,.64.35,1.58,1.58,0,0,0,.47-.07,1.54,1.54,0,0,0,.44-.23,1.24,1.24,0,0,0,.45-1V42.79A2.31,2.31,0,0,1,357.26,43.07Z"/><path class="cls-1" d="M363.2,44.56a1.33,1.33,0,0,0,.3.91,1,1,0,0,0,.85.34,1.25,1.25,0,0,0,.82-.25,1,1,0,0,0,.3-.77.79.79,0,0,0-.24-.63,1.89,1.89,0,0,0-.56-.35l-1.55-.56a2.92,2.92,0,0,1-1.38-.9,2.33,2.33,0,0,1-.46-1.5,2.81,2.81,0,0,1,.18-1A2,2,0,0,1,362,39a2.66,2.66,0,0,1,1-.56,4.4,4.4,0,0,1,1.45-.21,3.25,3.25,0,0,1,2.22.64,2.3,2.3,0,0,1,.72,1.81v.35h-2a1.67,1.67,0,0,0-.22-1,.86.86,0,0,0-.76-.32,1.16,1.16,0,0,0-.73.24.81.81,0,0,0-.31.69,1,1,0,0,0,.2.58,1.56,1.56,0,0,0,.76.43l1.33.45a3,3,0,0,1,1.47.92,2.47,2.47,0,0,1,.43,1.54,2.72,2.72,0,0,1-.24,1.19,2.29,2.29,0,0,1-.66.84,2.43,2.43,0,0,1-1,.48,5.19,5.19,0,0,1-1.29.15,5.56,5.56,0,0,1-1.54-.18,2.25,2.25,0,0,1-1-.53,1.92,1.92,0,0,1-.5-.85,4,4,0,0,1-.14-1.13v-.3h2Z"/><path class="cls-1" d="M371.53,36v2.46h1.28V40h-1.28v4.65a1.23,1.23,0,0,0,.16.73c.1.15.31.22.63.22h.25l.24,0v1.53c-.24,0-.48,0-.71,0l-.73,0a5,5,0,0,1-1-.09,1.06,1.06,0,0,1-.63-.35,1.54,1.54,0,0,1-.29-.7,5.47,5.47,0,0,1-.08-1.08V40h-1.12V38.48h1.12V36Z"/><path class="cls-1" d="M378.68,46.92a2.25,2.25,0,0,1-.95-.7,2.41,2.41,0,0,1-.46-1,5.62,5.62,0,0,1-.12-1.18V43.7h2.21c0,.22,0,.44,0,.65a2.5,2.5,0,0,0,.12.57,1.44,1.44,0,0,0,.28.44,1.07,1.07,0,0,0,.51.26V42.39l-.8-.29a3.26,3.26,0,0,1-1.68-1.19,3.37,3.37,0,0,1-.52-1.88,3.19,3.19,0,0,1,.78-2.3,3.52,3.52,0,0,1,2.22-1v-1.1h1v1.1a4.38,4.38,0,0,1,1.46.36,2.63,2.63,0,0,1,.91.7,2.39,2.39,0,0,1,.46.93,4.06,4.06,0,0,1,.13,1V39h-2.21a3.17,3.17,0,0,0-.17-1,.85.85,0,0,0-.58-.54v3l1.27.52a5.45,5.45,0,0,1,.8.41A2.34,2.34,0,0,1,384,42a2.61,2.61,0,0,1,.4.8,3.66,3.66,0,0,1,.14,1.13,3.29,3.29,0,0,1-.82,2.5,3.87,3.87,0,0,1-2.41.88v1.39h-1V47.27A5.22,5.22,0,0,1,378.68,46.92Zm.82-8.24a1.45,1.45,0,0,0,.79,1.34V37.46A1.1,1.1,0,0,0,379.5,38.68ZM382,45.15a1.49,1.49,0,0,0,.22-.81,1.75,1.75,0,0,0-.23-1,1.79,1.79,0,0,0-.7-.59v2.83A1.06,1.06,0,0,0,382,45.15Z"/><path class="cls-1" d="M385.13,47.09a6.34,6.34,0,0,1,.16-1.41,5,5,0,0,1,.46-1.24,6.11,6.11,0,0,1,.79-1.16,11.47,11.47,0,0,1,1.09-1.15l.93-.86a5,5,0,0,0,.61-.63,2.63,2.63,0,0,0,.37-.57,2.08,2.08,0,0,0,.16-.63,5.82,5.82,0,0,0,0-.76c0-.94-.37-1.41-1.12-1.41a1,1,0,0,0-1.06.65,2.46,2.46,0,0,0-.18.71c0,.26,0,.55,0,.85h-2.21V39a3.33,3.33,0,0,1,.85-2.43,3.69,3.69,0,0,1,2.67-.85,3.57,3.57,0,0,1,2.56.8,3,3,0,0,1,.84,2.29,5.51,5.51,0,0,1-.1,1,3.66,3.66,0,0,1-.3.9,3.91,3.91,0,0,1-.55.84,7.8,7.8,0,0,1-.81.84L389,43.64a4.58,4.58,0,0,0-.8.9,2.37,2.37,0,0,0-.37.76h4.27v1.79Z"/><path class="cls-1" d="M395.31,37.78l-.24,2.58h0a1.82,1.82,0,0,1,.83-.65,3.35,3.35,0,0,1,1.25-.2,2.59,2.59,0,0,1,1.35.31,2.39,2.39,0,0,1,.85.82,3.37,3.37,0,0,1,.44,1.16,6.56,6.56,0,0,1,.13,1.32,8.32,8.32,0,0,1-.16,1.72,3.44,3.44,0,0,1-.57,1.32,2.55,2.55,0,0,1-1.11.83,5.05,5.05,0,0,1-1.79.28,4.47,4.47,0,0,1-1.74-.29,2.43,2.43,0,0,1-1-.76,2.65,2.65,0,0,1-.48-1,5,5,0,0,1-.12-1v-.3h2.21c0,.19,0,.39,0,.61a2.41,2.41,0,0,0,.16.6,1.2,1.2,0,0,0,.34.46.93.93,0,0,0,.59.19,1.08,1.08,0,0,0,1-.56,3.39,3.39,0,0,0,.32-1.65,9.17,9.17,0,0,0-.07-1.17,2.11,2.11,0,0,0-.21-.74.88.88,0,0,0-.41-.38,1.53,1.53,0,0,0-.64-.11,1,1,0,0,0-.76.28,1.27,1.27,0,0,0-.33.76h-2.06l.41-6.16h5.91v1.79Z"/><path class="cls-1" d="M400.89,39.54a6.15,6.15,0,0,1,.44-1.93,3,3,0,0,1,1.06-1.34,3.35,3.35,0,0,1,2-.51,4.31,4.31,0,0,1,1.72.3,2.36,2.36,0,0,1,1.08.95,4.46,4.46,0,0,1,.58,1.71,16.5,16.5,0,0,1,.17,2.55c0,.79,0,1.54-.08,2.27a6.22,6.22,0,0,1-.43,1.93,2.91,2.91,0,0,1-1.07,1.32,3.48,3.48,0,0,1-2,.48,4.74,4.74,0,0,1-1.72-.27,2.34,2.34,0,0,1-1.09-.93,4.64,4.64,0,0,1-.58-1.71,16.59,16.59,0,0,1-.17-2.55C400.81,41,400.84,40.26,400.89,39.54Zm2.28,4.52a4.64,4.64,0,0,0,.2,1.07,1.05,1.05,0,0,0,.39.54,1.22,1.22,0,0,0,.61.14,1,1,0,0,0,.62-.18,1.23,1.23,0,0,0,.38-.63,5.69,5.69,0,0,0,.19-1.17c0-.49.05-1.1.05-1.83V40.77c0-.71,0-1.3-.05-1.75a4.64,4.64,0,0,0-.2-1.07,1.05,1.05,0,0,0-.39-.54,1.21,1.21,0,0,0-.6-.14,1,1,0,0,0-.63.18,1.19,1.19,0,0,0-.37.63,5.59,5.59,0,0,0-.2,1.17c0,.49-.05,1.1-.05,1.83v1.23C403.12,43,403.14,43.61,403.17,44.06Z"/><path class="cls-1" d="M411.34,46.68a6.69,6.69,0,0,1-.09,1.12,2.56,2.56,0,0,1-.33.93,1.78,1.78,0,0,1-.64.64,2.41,2.41,0,0,1-1,.31V48.56a.86.86,0,0,0,.62-.44,1.64,1.64,0,0,0,.21-.82v-.21h-.83V44.6h2.11Z"/><path class="cls-1" d="M412.73,39.54a6.15,6.15,0,0,1,.44-1.93,2.94,2.94,0,0,1,1.06-1.34,3.33,3.33,0,0,1,2-.51,4.23,4.23,0,0,1,1.71.3A2.34,2.34,0,0,1,419,37a4.46,4.46,0,0,1,.58,1.71,16.5,16.5,0,0,1,.17,2.55c0,.79,0,1.54-.08,2.27a6.52,6.52,0,0,1-.43,1.93,2.91,2.91,0,0,1-1.07,1.32,3.48,3.48,0,0,1-2,.48,4.74,4.74,0,0,1-1.72-.27,2.29,2.29,0,0,1-1.09-.93,4.46,4.46,0,0,1-.58-1.71,16.59,16.59,0,0,1-.17-2.55C412.65,41,412.68,40.26,412.73,39.54ZM415,44.06a4.64,4.64,0,0,0,.2,1.07,1.05,1.05,0,0,0,.39.54,1.22,1.22,0,0,0,.61.14,1,1,0,0,0,.62-.18,1.31,1.31,0,0,0,.38-.63,5.69,5.69,0,0,0,.19-1.17c0-.49.05-1.1.05-1.83V40.77c0-.71,0-1.3-.05-1.75a4.64,4.64,0,0,0-.2-1.07,1.05,1.05,0,0,0-.39-.54,1.21,1.21,0,0,0-.6-.14,1,1,0,0,0-.63.18,1.19,1.19,0,0,0-.37.63,5,5,0,0,0-.2,1.17c0,.49-.05,1.1-.05,1.83v1.23C415,43,415,43.61,415,44.06Z"/><path class="cls-1" d="M420.57,39.54a6.45,6.45,0,0,1,.43-1.93,3,3,0,0,1,1.07-1.34,3.32,3.32,0,0,1,2-.51,4.24,4.24,0,0,1,1.72.3,2.34,2.34,0,0,1,1.09.95,4.64,4.64,0,0,1,.58,1.71,16.5,16.5,0,0,1,.17,2.55c0,.79,0,1.54-.08,2.27a6.22,6.22,0,0,1-.44,1.93A2.83,2.83,0,0,1,426,46.79a3.49,3.49,0,0,1-2,.48,4.72,4.72,0,0,1-1.71-.27,2.29,2.29,0,0,1-1.09-.93,4.46,4.46,0,0,1-.58-1.71,16.59,16.59,0,0,1-.17-2.55C420.49,41,420.52,40.26,420.57,39.54Zm2.28,4.52a4.64,4.64,0,0,0,.2,1.07,1.05,1.05,0,0,0,.39.54,1.21,1.21,0,0,0,.6.14,1,1,0,0,0,.63-.18A1.23,1.23,0,0,0,425,45a5,5,0,0,0,.2-1.17c0-.49.05-1.1.05-1.83V40.77c0-.71,0-1.3-.05-1.75A4.64,4.64,0,0,0,425,38a1.05,1.05,0,0,0-.39-.54,1.22,1.22,0,0,0-.61-.14,1,1,0,0,0-.62.18,1.26,1.26,0,0,0-.38.63,5.69,5.69,0,0,0-.19,1.17c0,.49-.05,1.1-.05,1.83v1.23C422.8,43,422.82,43.61,422.85,44.06Z"/><path class="cls-1" d="M428.41,39.54a6.45,6.45,0,0,1,.43-1.93,3,3,0,0,1,1.07-1.34,3.32,3.32,0,0,1,2-.51,4.24,4.24,0,0,1,1.72.3,2.34,2.34,0,0,1,1.09.95,4.64,4.64,0,0,1,.58,1.71,16.5,16.5,0,0,1,.17,2.55c0,.79,0,1.54-.08,2.27a6.22,6.22,0,0,1-.44,1.93,2.89,2.89,0,0,1-1.06,1.32,3.49,3.49,0,0,1-2,.48,4.72,4.72,0,0,1-1.71-.27,2.29,2.29,0,0,1-1.09-.93,4.46,4.46,0,0,1-.58-1.71,16.59,16.59,0,0,1-.17-2.55C428.33,41,428.36,40.26,428.41,39.54Zm2.28,4.52a4.64,4.64,0,0,0,.2,1.07,1.05,1.05,0,0,0,.39.54,1.21,1.21,0,0,0,.6.14,1,1,0,0,0,.63-.18,1.23,1.23,0,0,0,.37-.63,5,5,0,0,0,.2-1.17c0-.49.05-1.1.05-1.83V40.77c0-.71,0-1.3-.05-1.75a4.64,4.64,0,0,0-.2-1.07,1.05,1.05,0,0,0-.39-.54,1.22,1.22,0,0,0-.61-.14,1,1,0,0,0-.62.18,1.26,1.26,0,0,0-.38.63,5.69,5.69,0,0,0-.19,1.17c0,.49-.05,1.1-.05,1.83v1.23C430.64,43,430.66,43.61,430.69,44.06Z"/><path class="cls-1" d="M41.19,58.92a2.92,2.92,0,0,1,.24-1.26,2.22,2.22,0,0,1,.65-.82,2.65,2.65,0,0,1,1-.44,4.47,4.47,0,0,1,1.17-.14,5.38,5.38,0,0,1,1.6.19,2.19,2.19,0,0,1,.95.55,1.81,1.81,0,0,1,.45.84,4.41,4.41,0,0,1,.12,1.06v4.53a5.65,5.65,0,0,0,.06.94,3.1,3.1,0,0,0,.22.72H45.49a1.65,1.65,0,0,1-.16-.44c0-.15-.08-.31-.11-.45h0a1.94,1.94,0,0,1-.89.87,3.62,3.62,0,0,1-1.3.2,2.22,2.22,0,0,1-1-.2,1.72,1.72,0,0,1-.64-.55,2.41,2.41,0,0,1-.35-.8,3.9,3.9,0,0,1,0-1.92,1.92,1.92,0,0,1,.39-.75,2.08,2.08,0,0,1,.67-.52,5.45,5.45,0,0,1,1-.37l1.25-.33a1.47,1.47,0,0,0,.69-.35,1,1,0,0,0,.19-.66A1.23,1.23,0,0,0,45,58a1,1,0,0,0-.79-.28.93.93,0,0,0-.77.31,1.21,1.21,0,0,0-.26.81v.24h-2Zm3.55,2.15a2.71,2.71,0,0,1-.46.15,1.73,1.73,0,0,0-1,.48,1.36,1.36,0,0,0-.29.91,1.75,1.75,0,0,0,.19.85.68.68,0,0,0,.64.35,1.58,1.58,0,0,0,.47-.07,1.54,1.54,0,0,0,.44-.23,1.23,1.23,0,0,0,.32-.42,1.28,1.28,0,0,0,.13-.61V60.79A2.31,2.31,0,0,1,44.74,61.07Z"/><path class="cls-1" d="M51.17,56.48v1h0a2.1,2.1,0,0,1,.91-.93,2.66,2.66,0,0,1,1.28-.3,2.16,2.16,0,0,1,1.62.58,2.57,2.57,0,0,1,.57,1.87v6.38H53.38V59.16a1.49,1.49,0,0,0-.22-.94.88.88,0,0,0-.72-.26c-.78,0-1.17.47-1.17,1.42v5.71H49.06V56.48Z"/><path class="cls-1" d="M61.61,64.18a2.26,2.26,0,0,1-.83.85,2.39,2.39,0,0,1-1.13.24,2.2,2.2,0,0,1-2-1A7,7,0,0,1,57,60.79a7.13,7.13,0,0,1,.64-3.47,2.17,2.17,0,0,1,2-1.06,2,2,0,0,1,1.07.26,2.57,2.57,0,0,1,.79.76h0V53.67h2.21V65.09H61.64v-.91Zm-2.17-1.27a.9.9,0,0,0,.93.71.93.93,0,0,0,1-.71,10.81,10.81,0,0,0,0-4.24.92.92,0,0,0-1-.71.89.89,0,0,0-.93.71,10.32,10.32,0,0,0,0,4.24Z"/><path class="cls-1" d="M71.59,53.67v3.61h0a2.57,2.57,0,0,1,.79-.76,2,2,0,0,1,1.07-.26,2.17,2.17,0,0,1,2,1.06,7.13,7.13,0,0,1,.64,3.47,7,7,0,0,1-.64,3.44,2.2,2.2,0,0,1-2,1A2.39,2.39,0,0,1,72.35,65a2.24,2.24,0,0,1-.82-.85h0v.91H69.38V53.67Zm.22,9.24a.91.91,0,0,0,1,.71.9.9,0,0,0,.93-.71,10.32,10.32,0,0,0,0-4.24.89.89,0,0,0-.93-.71.9.9,0,0,0-1,.71,10.32,10.32,0,0,0,0,4.24Z"/><path class="cls-1" d="M77.53,58.92a2.78,2.78,0,0,1,.24-1.26,2.19,2.19,0,0,1,.64-.82,2.81,2.81,0,0,1,1-.44,4.49,4.49,0,0,1,1.18-.14,5.42,5.42,0,0,1,1.6.19,2.15,2.15,0,0,1,.94.55,1.74,1.74,0,0,1,.46.84,4.41,4.41,0,0,1,.12,1.06v4.53a5.65,5.65,0,0,0,.06.94,2.64,2.64,0,0,0,.21.72H81.83a1.67,1.67,0,0,1-.17-.44c0-.15-.07-.31-.1-.45h0a2,2,0,0,1-.89.87,3.68,3.68,0,0,1-1.31.2,2.18,2.18,0,0,1-1-.2,1.72,1.72,0,0,1-.64-.55,2.41,2.41,0,0,1-.35-.8,3.26,3.26,0,0,1-.12-.87,4.07,4.07,0,0,1,.13-1.05,2.23,2.23,0,0,1,.39-.75,2.12,2.12,0,0,1,.68-.52,5.45,5.45,0,0,1,1-.37l1.25-.33a1.47,1.47,0,0,0,.69-.35,1,1,0,0,0,.19-.66,1.23,1.23,0,0,0-.23-.78,1,1,0,0,0-.8-.28.91.91,0,0,0-.76.31,1.16,1.16,0,0,0-.26.81v.24h-2Zm3.55,2.15a2.79,2.79,0,0,1-.47.15,1.81,1.81,0,0,0-1,.48,1.36,1.36,0,0,0-.28.91,1.75,1.75,0,0,0,.19.85.68.68,0,0,0,.64.35,1.51,1.51,0,0,0,.46-.07,1.42,1.42,0,0,0,.44-.23,1.28,1.28,0,0,0,.46-1V60.79A2.31,2.31,0,0,1,81.08,61.07Z"/><path class="cls-1" d="M89.5,59a2.33,2.33,0,0,0-.14-.55,1,1,0,0,0-.3-.4.81.81,0,0,0-.51-.15,1,1,0,0,0-1,.73,3.84,3.84,0,0,0-.18.91c0,.37,0,.8,0,1.3s0,1,0,1.37a4.13,4.13,0,0,0,.18.94,1,1,0,0,0,.36.53.93.93,0,0,0,.6.17.88.88,0,0,0,.82-.48,3.44,3.44,0,0,0,.25-1.53h2.11a3.84,3.84,0,0,1-.76,2.58,3.15,3.15,0,0,1-2.52.89,4.77,4.77,0,0,1-1.44-.2,2.15,2.15,0,0,1-1-.72A3.5,3.5,0,0,1,85.29,63a9.54,9.54,0,0,1-.21-2.17,8,8,0,0,1,.25-2.2,3.51,3.51,0,0,1,.72-1.39,2.48,2.48,0,0,1,1.11-.73,4.42,4.42,0,0,1,1.4-.21,2.9,2.9,0,0,1,2.32.9,3.59,3.59,0,0,1,.77,2.43H89.54A4.35,4.35,0,0,0,89.5,59Z"/><path class="cls-1" d="M95.25,59.7h0l2.22-3.22h2.43l-2.48,3.4,2.85,5.21H97.88L96,61.56l-.79,1v2.51h-2.2V53.67h2.2Z"/><path class="cls-1" d="M103,61.81a4.56,4.56,0,0,0,.06.75,2.84,2.84,0,0,0,.18.64,1.27,1.27,0,0,0,.34.44.75.75,0,0,0,.51.17.9.9,0,0,0,.82-.4,2.91,2.91,0,0,0,.35-1.21h2a3.42,3.42,0,0,1-.8,2.28,3,3,0,0,1-2.32.79,3.74,3.74,0,0,1-1.87-.4,2.46,2.46,0,0,1-1-1.06,4.31,4.31,0,0,1-.39-1.47c0-.54-.07-1.09-.07-1.63a11.32,11.32,0,0,1,.12-1.67,4,4,0,0,1,.48-1.42,2.46,2.46,0,0,1,1-1,3.67,3.67,0,0,1,1.79-.37,3.5,3.5,0,0,1,1.58.31,2.34,2.34,0,0,1,1,.88,3.52,3.52,0,0,1,.48,1.38,11,11,0,0,1,.13,1.8v.49H103Zm2.2-2.87a2.58,2.58,0,0,0-.17-.64.84.84,0,0,0-.34-.4,1,1,0,0,0-.55-.14.88.88,0,0,0-.55.16,1,1,0,0,0-.35.4,2.22,2.22,0,0,0-.18.55,3.08,3.08,0,0,0-.06.61v.33h2.26Q105.26,59.32,105.21,58.94Z"/><path class="cls-1" d="M113.08,64.18a2.26,2.26,0,0,1-.83.85,2.38,2.38,0,0,1-1.12.24,2.18,2.18,0,0,1-2-1,6.86,6.86,0,0,1-.64-3.44,7,7,0,0,1,.64-3.47,2.15,2.15,0,0,1,2-1.06,2,2,0,0,1,1.06.26,2.47,2.47,0,0,1,.79.76h0V53.67h2.21V65.09h-2.11v-.91Zm-2.17-1.27a.91.91,0,0,0,.94.71.92.92,0,0,0,1-.71,10.81,10.81,0,0,0,0-4.24.91.91,0,0,0-1-.71.9.9,0,0,0-.94.71,10.32,10.32,0,0,0,0,4.24Z"/><path class="cls-1" d="M123.06,53.67v3.61h0a2.49,2.49,0,0,1,.8-.76,2,2,0,0,1,1.06-.26,2.16,2.16,0,0,1,2,1.06,7,7,0,0,1,.64,3.47,6.86,6.86,0,0,1-.64,3.44,2.19,2.19,0,0,1-2,1,2.39,2.39,0,0,1-1.13-.24,2.24,2.24,0,0,1-.82-.85h0v.91h-2.12V53.67Zm.22,9.24a1,1,0,0,0,1.89,0,10.81,10.81,0,0,0,0-4.24,1,1,0,0,0-1.89,0,10.32,10.32,0,0,0,0,4.24Z"/><path class="cls-1" d="M129.59,66.26a1.08,1.08,0,0,0,.87-.32,1.47,1.47,0,0,0,.31-.85l-2.41-8.61h2.3l1.28,6h0l1.12-6h2.21l-2.08,8a15,15,0,0,1-.55,1.73,3.12,3.12,0,0,1-.62,1,1.77,1.77,0,0,1-.87.47,6.3,6.3,0,0,1-1.27.11H129V66.21A3.9,3.9,0,0,0,129.59,66.26Z"/><path class="cls-1" d="M143,54v2.46h1.29V58H143v4.65a1.31,1.31,0,0,0,.16.73c.1.15.31.22.63.22H144l.25,0v1.53q-.37,0-.72,0l-.72,0a5,5,0,0,1-1.05-.09,1.06,1.06,0,0,1-.63-.35,1.54,1.54,0,0,1-.29-.7,5.47,5.47,0,0,1-.08-1.08V58h-1.12V56.48h1.12V54Z"/><path class="cls-1" d="M147.38,53.67v3.69h0a2.25,2.25,0,0,1,2.1-1.1,2.16,2.16,0,0,1,1.62.58,2.57,2.57,0,0,1,.57,1.87v6.38h-2.21V59.16a1.49,1.49,0,0,0-.22-.94.88.88,0,0,0-.72-.26c-.78,0-1.17.47-1.17,1.42v5.71h-2.21V53.67Z"/><path class="cls-1" d="M155.22,61.81a4.56,4.56,0,0,0,.06.75,2.08,2.08,0,0,0,.18.64,1.27,1.27,0,0,0,.34.44.75.75,0,0,0,.51.17.88.88,0,0,0,.81-.4,2.89,2.89,0,0,0,.36-1.21h2a3.42,3.42,0,0,1-.8,2.28,3,3,0,0,1-2.32.79,3.74,3.74,0,0,1-1.87-.4,2.46,2.46,0,0,1-1-1.06,4.1,4.1,0,0,1-.4-1.47c0-.54-.07-1.09-.07-1.63a11.32,11.32,0,0,1,.12-1.67,4,4,0,0,1,.48-1.42,2.59,2.59,0,0,1,1-1,3.71,3.71,0,0,1,1.8-.37,3.43,3.43,0,0,1,1.57.31,2.36,2.36,0,0,1,1,.88,3.69,3.69,0,0,1,.48,1.38,11,11,0,0,1,.13,1.8v.49h-4.37Zm2.19-2.87a2.21,2.21,0,0,0-.17-.64.88.88,0,0,0-.33-.4,1,1,0,0,0-.55-.14.91.91,0,0,0-.56.16,1.12,1.12,0,0,0-.34.4,1.62,1.62,0,0,0-.18.55,3.08,3.08,0,0,0-.06.61v.33h2.26C157.47,59.48,157.44,59.19,157.41,58.94Z"/><path class="cls-1" d="M164.26,58V56.48h1.12v-1a2.58,2.58,0,0,1,.16-1,1.53,1.53,0,0,1,.46-.64,1.78,1.78,0,0,1,.72-.34,4.08,4.08,0,0,1,1-.11c.4,0,.79,0,1.19.05v1.57l-.23,0h-.2a1.1,1.1,0,0,0-.66.16.66.66,0,0,0-.19.53v.75h1.28V58h-1.28v7.1h-2.21V58Z"/><path class="cls-1" d="M174.18,64.08a2.13,2.13,0,0,1-.91.92,2.93,2.93,0,0,1-1.28.27,2.28,2.28,0,0,1-1.63-.55,2.56,2.56,0,0,1-.56-1.85V56.48H172v5.94a1.48,1.48,0,0,0,.23.94.92.92,0,0,0,.72.26c.78,0,1.17-.48,1.17-1.42V56.48h2.2v8.61h-2.11v-1Z"/><path class="cls-1" d="M180.24,53.67V65.09H178V53.67Z"/><path class="cls-1" d="M184.24,53.67V65.09H182V53.67Z"/><path class="cls-1" d="M189.32,58V56.48h1.12v-1a2.58,2.58,0,0,1,.16-1,1.43,1.43,0,0,1,.45-.64,1.83,1.83,0,0,1,.73-.34,4.08,4.08,0,0,1,1-.11c.39,0,.79,0,1.18.05v1.57l-.22,0h-.21a1,1,0,0,0-.65.16.66.66,0,0,0-.2.53v.75h1.28V58h-1.28v7.1h-2.2V58Z"/><path class="cls-1" d="M194.84,58.92a2.92,2.92,0,0,1,.24-1.26,2.19,2.19,0,0,1,.64-.82,2.81,2.81,0,0,1,1-.44,4.49,4.49,0,0,1,1.18-.14,5.42,5.42,0,0,1,1.6.19,2.15,2.15,0,0,1,.94.55,1.74,1.74,0,0,1,.46.84A4.41,4.41,0,0,1,201,58.9v4.53a5.65,5.65,0,0,0,.06.94,2.64,2.64,0,0,0,.21.72h-2.11a1.67,1.67,0,0,1-.17-.44c0-.15-.07-.31-.1-.45h0a2,2,0,0,1-.89.87,3.68,3.68,0,0,1-1.31.2,2.18,2.18,0,0,1-1-.2,1.72,1.72,0,0,1-.64-.55,2.41,2.41,0,0,1-.35-.8,3.26,3.26,0,0,1-.12-.87,4.07,4.07,0,0,1,.13-1.05,2.23,2.23,0,0,1,.39-.75,2.12,2.12,0,0,1,.68-.52,5.45,5.45,0,0,1,1-.37l1.25-.33a1.47,1.47,0,0,0,.69-.35,1,1,0,0,0,.19-.66,1.23,1.23,0,0,0-.23-.78,1,1,0,0,0-.8-.28.91.91,0,0,0-.76.31,1.16,1.16,0,0,0-.26.81v.24h-2Zm3.55,2.15a2.79,2.79,0,0,1-.47.15,1.81,1.81,0,0,0-1,.48,1.36,1.36,0,0,0-.28.91,1.75,1.75,0,0,0,.19.85.68.68,0,0,0,.64.35,1.51,1.51,0,0,0,.46-.07,1.42,1.42,0,0,0,.44-.23,1.28,1.28,0,0,0,.46-1V60.79A2.31,2.31,0,0,1,198.39,61.07Z"/><path class="cls-1" d="M205,53.54v1.89h-2.21V53.54Zm0,2.94v8.61h-2.21V56.48Z"/><path class="cls-1" d="M209.39,54v2.46h1.29V58h-1.29v4.65a1.31,1.31,0,0,0,.16.73c.1.15.31.22.63.22h.26l.24,0v1.53q-.37,0-.72,0l-.72,0a5,5,0,0,1-1.05-.09,1.09,1.09,0,0,1-.63-.35,1.54,1.54,0,0,1-.29-.7,5.47,5.47,0,0,1-.08-1.08V58h-1.12V56.48h1.12V54Z"/><path class="cls-1" d="M213.81,53.67v3.69h0a2.25,2.25,0,0,1,2.1-1.1,2.16,2.16,0,0,1,1.62.58,2.57,2.57,0,0,1,.57,1.87v6.38h-2.21V59.16a1.49,1.49,0,0,0-.22-.94A.88.88,0,0,0,215,58c-.78,0-1.17.47-1.17,1.42v5.71H211.6V53.67Z"/><path class="cls-1" d="M223.75,58.92a2.92,2.92,0,0,1,.24-1.26,2.19,2.19,0,0,1,.64-.82,2.81,2.81,0,0,1,1-.44,4.49,4.49,0,0,1,1.18-.14,5.38,5.38,0,0,1,1.6.19,2.1,2.1,0,0,1,.94.55,1.74,1.74,0,0,1,.46.84,4.41,4.41,0,0,1,.12,1.06v4.53a5.65,5.65,0,0,0,.06.94,3.05,3.05,0,0,0,.21.72h-2.11a2.11,2.11,0,0,1-.17-.44c0-.15-.07-.31-.1-.45h0a2,2,0,0,1-.89.87,3.68,3.68,0,0,1-1.31.2,2.21,2.21,0,0,1-1-.2,1.72,1.72,0,0,1-.64-.55,2.41,2.41,0,0,1-.35-.8,3.24,3.24,0,0,1-.11-.87,4.1,4.1,0,0,1,.12-1.05,2.23,2.23,0,0,1,.39-.75,2.12,2.12,0,0,1,.68-.52,5.45,5.45,0,0,1,1-.37l1.25-.33a1.47,1.47,0,0,0,.69-.35,1,1,0,0,0,.19-.66,1.23,1.23,0,0,0-.23-.78,1,1,0,0,0-.8-.28.91.91,0,0,0-.76.31,1.21,1.21,0,0,0-.26.81v.24h-2Zm3.55,2.15a2.79,2.79,0,0,1-.47.15,1.81,1.81,0,0,0-1,.48,1.36,1.36,0,0,0-.28.91,1.75,1.75,0,0,0,.19.85.68.68,0,0,0,.64.35,1.51,1.51,0,0,0,.46-.07,1.42,1.42,0,0,0,.44-.23,1.14,1.14,0,0,0,.33-.42,1.28,1.28,0,0,0,.13-.61V60.79A2.31,2.31,0,0,1,227.3,61.07Z"/><path class="cls-1" d="M233.73,56.48v1h0a2.21,2.21,0,0,1,.91-.93,2.69,2.69,0,0,1,1.28-.3,2.17,2.17,0,0,1,1.63.58,2.57,2.57,0,0,1,.57,1.87v6.38h-2.21V59.16a1.48,1.48,0,0,0-.23-.94A.88.88,0,0,0,235,58c-.77,0-1.16.47-1.16,1.42v5.71h-2.21V56.48Z"/><path class="cls-1" d="M244.16,64.18a2.24,2.24,0,0,1-.82.85,2.42,2.42,0,0,1-1.13.24,2.19,2.19,0,0,1-2-1,6.86,6.86,0,0,1-.64-3.44,7,7,0,0,1,.64-3.47,2.16,2.16,0,0,1,2-1.06,2,2,0,0,1,1.06.26,2.49,2.49,0,0,1,.8.76h0V53.67h2.21V65.09h-2.12v-.91ZM242,62.91a1,1,0,0,0,1.89,0,10.32,10.32,0,0,0,0-4.24,1,1,0,0,0-1.89,0,10.81,10.81,0,0,0,0,4.24Z"/><path class="cls-1" d="M256,59a1.93,1.93,0,0,0-.14-.55,1,1,0,0,0-.3-.4.81.81,0,0,0-.51-.15,1.12,1.12,0,0,0-.66.18,1.18,1.18,0,0,0-.38.55,3.84,3.84,0,0,0-.18.91c0,.37,0,.8,0,1.3s0,1,0,1.37a4.13,4.13,0,0,0,.18.94,1.13,1.13,0,0,0,.36.53.93.93,0,0,0,.6.17.87.87,0,0,0,.82-.48,3.44,3.44,0,0,0,.25-1.53h2.11a3.84,3.84,0,0,1-.76,2.58,3.15,3.15,0,0,1-2.52.89,4.77,4.77,0,0,1-1.44-.2,2.2,2.2,0,0,1-1-.72,3.5,3.5,0,0,1-.61-1.39,9.54,9.54,0,0,1-.21-2.17,8,8,0,0,1,.25-2.2,3.51,3.51,0,0,1,.72-1.39,2.48,2.48,0,0,1,1.11-.73,4.44,4.44,0,0,1,1.41-.21,2.89,2.89,0,0,1,2.31.9,3.54,3.54,0,0,1,.77,2.43h-2.11A4.35,4.35,0,0,0,256,59Z"/><path class="cls-1" d="M261.62,56.48v1.16h0a3,3,0,0,1,.82-1,1.78,1.78,0,0,1,1.16-.38h.2l.2,0V58.4l-.34,0h-.34a2.25,2.25,0,0,0-.58.08,1.4,1.4,0,0,0-.53.27,1.21,1.21,0,0,0-.38.48,1.57,1.57,0,0,0-.15.72v5.17h-2.2V56.48Z"/><path class="cls-1" d="M266.88,61.81a4.56,4.56,0,0,0,.06.75,2.84,2.84,0,0,0,.18.64,1.27,1.27,0,0,0,.34.44.75.75,0,0,0,.51.17.9.9,0,0,0,.82-.4,3.07,3.07,0,0,0,.35-1.21h2a3.42,3.42,0,0,1-.8,2.28,3,3,0,0,1-2.32.79,3.74,3.74,0,0,1-1.87-.4,2.46,2.46,0,0,1-1-1.06,3.9,3.9,0,0,1-.39-1.47c-.05-.54-.08-1.09-.08-1.63a11.32,11.32,0,0,1,.12-1.67,4,4,0,0,1,.48-1.42,2.55,2.55,0,0,1,1-1,3.64,3.64,0,0,1,1.79-.37,3.43,3.43,0,0,1,1.57.31,2.36,2.36,0,0,1,1,.88,3.52,3.52,0,0,1,.48,1.38,11,11,0,0,1,.13,1.8v.49h-4.37Zm2.19-2.87a2.22,2.22,0,0,0-.16-.64.9.9,0,0,0-.34-.4,1,1,0,0,0-.55-.14.86.86,0,0,0-.55.16,1,1,0,0,0-.35.4,2.22,2.22,0,0,0-.18.55,3.08,3.08,0,0,0-.06.61v.33h2.26A7,7,0,0,0,269.07,58.94Z"/><path class="cls-1" d="M277,64.18a2.26,2.26,0,0,1-.83.85,2.39,2.39,0,0,1-1.13.24,2.2,2.2,0,0,1-2-1,7,7,0,0,1-.64-3.44,7.13,7.13,0,0,1,.64-3.47,2.17,2.17,0,0,1,2-1.06,2,2,0,0,1,1.07.26,2.47,2.47,0,0,1,.79.76h0V53.67h2.21V65.09H277v-.91Zm-2.17-1.27a.9.9,0,0,0,.93.71.92.92,0,0,0,1-.71,10.81,10.81,0,0,0,0-4.24.91.91,0,0,0-1-.71.89.89,0,0,0-.93.71,10.32,10.32,0,0,0,0,4.24Z"/><path class="cls-1" d="M283,53.54v1.89H280.8V53.54Zm0,2.94v8.61H280.8V56.48Z"/><path class="cls-1" d="M287.41,54v2.46h1.28V58h-1.28v4.65a1.33,1.33,0,0,0,.15.73c.1.15.31.22.63.22h.26l.24,0v1.53c-.24,0-.48,0-.71,0l-.73,0a5,5,0,0,1-1.05-.09,1,1,0,0,1-.62-.35,1.55,1.55,0,0,1-.3-.7,6.36,6.36,0,0,1-.08-1.08V58h-1.12V56.48h1.12V54Z"/><path class="cls-1" d="M293.51,58.84a3.74,3.74,0,0,1,.57-1.42,2.52,2.52,0,0,1,1.05-.86,3.76,3.76,0,0,1,1.59-.3,4.2,4.2,0,0,1,1.65.26,2.37,2.37,0,0,1,1,.86A3.63,3.63,0,0,1,300,58.8a10.61,10.61,0,0,1,.16,2,10.33,10.33,0,0,1-.17,2,3.82,3.82,0,0,1-.58,1.42,2.49,2.49,0,0,1-1.05.84,4.13,4.13,0,0,1-1.59.27,4.22,4.22,0,0,1-1.65-.25,2.3,2.3,0,0,1-1-.83,4,4,0,0,1-.54-1.43,10.54,10.54,0,0,1-.16-2A9.38,9.38,0,0,1,293.51,58.84ZM295.57,62a4,4,0,0,0,.15,1,1.38,1.38,0,0,0,.36.63.91.91,0,0,0,.64.22.93.93,0,0,0,.93-.7,7.49,7.49,0,0,0,.26-2.32,7.44,7.44,0,0,0-.26-2.32.94.94,0,0,0-.93-.71.91.91,0,0,0-.64.23,1.34,1.34,0,0,0-.36.62,4.21,4.21,0,0,0-.15,1c0,.37,0,.78,0,1.22S295.55,61.63,295.57,62Z"/><path class="cls-1" d="M300.82,58V56.48h1.12v-1a2.58,2.58,0,0,1,.16-1,1.51,1.51,0,0,1,.45-.64,1.83,1.83,0,0,1,.73-.34,4.08,4.08,0,0,1,1-.11c.39,0,.79,0,1.18.05v1.57l-.22,0H305a1,1,0,0,0-.65.16.66.66,0,0,0-.2.53v.75h1.28V58h-1.28v7.1h-2.2V58Z"/><path class="cls-1" d="M313,54v2.46h1.28V58H313v4.65a1.33,1.33,0,0,0,.15.73c.1.15.31.22.64.22h.25l.24,0v1.53c-.24,0-.48,0-.71,0l-.73,0a5.06,5.06,0,0,1-1.05-.09,1,1,0,0,1-.62-.35,1.67,1.67,0,0,1-.3-.7,6.36,6.36,0,0,1-.08-1.08V58h-1.12V56.48h1.12V54Z"/><path class="cls-1" d="M317.46,53.67v3.69h0a2.25,2.25,0,0,1,2.1-1.1,2.16,2.16,0,0,1,1.62.58,2.57,2.57,0,0,1,.57,1.87v6.38h-2.21V59.16a1.49,1.49,0,0,0-.22-.94.88.88,0,0,0-.72-.26c-.78,0-1.17.47-1.17,1.42v5.71h-2.21V53.67Z"/><path class="cls-1" d="M325.3,61.81a6,6,0,0,0,.05.75,2.4,2.4,0,0,0,.19.64,1.24,1.24,0,0,0,.33.44.76.76,0,0,0,.52.17.88.88,0,0,0,.81-.4,2.91,2.91,0,0,0,.35-1.21h2a3.42,3.42,0,0,1-.8,2.28,3,3,0,0,1-2.32.79,3.71,3.71,0,0,1-1.87-.4,2.55,2.55,0,0,1-1-1.06,4.31,4.31,0,0,1-.39-1.47c-.05-.54-.07-1.09-.07-1.63a11.32,11.32,0,0,1,.12-1.67,4,4,0,0,1,.48-1.42,2.52,2.52,0,0,1,1-1,3.69,3.69,0,0,1,1.79-.37,3.47,3.47,0,0,1,1.58.31,2.43,2.43,0,0,1,1,.88,3.87,3.87,0,0,1,.48,1.38,12.27,12.27,0,0,1,.13,1.8v.49H325.3Zm2.19-2.87a2.21,2.21,0,0,0-.17-.64.88.88,0,0,0-.33-.4,1.06,1.06,0,0,0-.56-.14.9.9,0,0,0-.55.16,1,1,0,0,0-.34.4,1.88,1.88,0,0,0-.19.55,4.07,4.07,0,0,0-.05.61v.33h2.25Q327.54,59.32,327.49,58.94Z"/><path class="cls-1" d="M337.2,61.64a4.88,4.88,0,0,0,.06.79,1.62,1.62,0,0,0,.2.62,1.21,1.21,0,0,0,.42.42,1.57,1.57,0,0,0,1.34,0,1.08,1.08,0,0,0,.4-.42,1.47,1.47,0,0,0,.21-.62,4.88,4.88,0,0,0,.06-.79v-8h2.3v8a4.7,4.7,0,0,1-.3,1.8,2.82,2.82,0,0,1-.82,1.12,2.67,2.67,0,0,1-1.16.56,6.19,6.19,0,0,1-1.37.15,7.45,7.45,0,0,1-1.35-.13,2.82,2.82,0,0,1-1.17-.52,2.65,2.65,0,0,1-.82-1.11,4.94,4.94,0,0,1-.3-1.87v-8h2.3Z"/><path class="cls-1" d="M345.86,56.48v1h0a2.15,2.15,0,0,1,.91-.93,2.66,2.66,0,0,1,1.28-.3,2.17,2.17,0,0,1,1.63.58,2.61,2.61,0,0,1,.56,1.87v6.38h-2.21V59.16a1.49,1.49,0,0,0-.22-.94.88.88,0,0,0-.72-.26c-.78,0-1.17.47-1.17,1.42v5.71h-2.2V56.48Z"/><path class="cls-1" d="M354.19,53.54v1.89H352V53.54Zm0,2.94v8.61H352V56.48Z"/><path class="cls-1" d="M358.59,54v2.46h1.28V58h-1.28v4.65a1.23,1.23,0,0,0,.16.73c.1.15.31.22.63.22h.25l.24,0v1.53c-.24,0-.48,0-.71,0l-.73,0a5.13,5.13,0,0,1-1.05-.09,1.06,1.06,0,0,1-.62-.35,1.67,1.67,0,0,1-.3-.7,6.36,6.36,0,0,1-.08-1.08V58h-1.12V56.48h1.12V54Z"/><path class="cls-1" d="M362.69,61.81a4.56,4.56,0,0,0,.06.75,2.08,2.08,0,0,0,.18.64,1.16,1.16,0,0,0,.34.44.72.72,0,0,0,.51.17.88.88,0,0,0,.81-.4A3,3,0,0,0,365,62.2h2a3.42,3.42,0,0,1-.8,2.28,3,3,0,0,1-2.32.79,3.74,3.74,0,0,1-1.87-.4,2.46,2.46,0,0,1-1-1.06,4.1,4.1,0,0,1-.4-1.47c0-.54-.07-1.09-.07-1.63A11.32,11.32,0,0,1,360.6,59a4,4,0,0,1,.48-1.42,2.59,2.59,0,0,1,1-1,3.71,3.71,0,0,1,1.8-.37,3.43,3.43,0,0,1,1.57.31,2.43,2.43,0,0,1,1,.88,3.87,3.87,0,0,1,.48,1.38,12.27,12.27,0,0,1,.13,1.8v.49h-4.37Zm2.19-2.87a2.21,2.21,0,0,0-.17-.64.88.88,0,0,0-.33-.4,1,1,0,0,0-.55-.14.91.91,0,0,0-.56.16,1,1,0,0,0-.34.4,1.62,1.62,0,0,0-.18.55,3.08,3.08,0,0,0-.06.61v.33H365C364.93,59.48,364.91,59.19,364.88,58.94Z"/><path class="cls-1" d="M372.75,64.18a2.24,2.24,0,0,1-.82.85,2.39,2.39,0,0,1-1.13.24,2.2,2.2,0,0,1-2-1,6.86,6.86,0,0,1-.64-3.44,7,7,0,0,1,.64-3.47,2.17,2.17,0,0,1,2-1.06,2,2,0,0,1,1.07.26,2.57,2.57,0,0,1,.79.76h0V53.67h2.21V65.09h-2.11v-.91Zm-2.16-1.27a.9.9,0,0,0,.93.71.91.91,0,0,0,1-.71,10.32,10.32,0,0,0,0-4.24.9.9,0,0,0-1-.71.89.89,0,0,0-.93.71,10.32,10.32,0,0,0,0,4.24Z"/><path class="cls-1" d="M382.45,61.86a4.07,4.07,0,0,0,.06.73,1.46,1.46,0,0,0,.24.55,1.19,1.19,0,0,0,.47.35,1.83,1.83,0,0,0,.75.13,1.51,1.51,0,0,0,.95-.34,1.31,1.31,0,0,0,.42-1.07,1.87,1.87,0,0,0-.1-.66,1.31,1.31,0,0,0-.34-.51,2.27,2.27,0,0,0-.64-.4,8,8,0,0,0-1-.38A8.45,8.45,0,0,1,382,59.7,3.63,3.63,0,0,1,381,59a2.58,2.58,0,0,1-.55-1,3.86,3.86,0,0,1-.18-1.24,3.17,3.17,0,0,1,.95-2.52,3.75,3.75,0,0,1,2.59-.84,5.76,5.76,0,0,1,1.42.17,2.87,2.87,0,0,1,1.12.55,2.51,2.51,0,0,1,.73,1,3.27,3.27,0,0,1,.27,1.4v.32h-2.21a2.3,2.3,0,0,0-.29-1.26,1.06,1.06,0,0,0-1-.44,1.71,1.71,0,0,0-.64.11,1.07,1.07,0,0,0-.41.3.91.91,0,0,0-.2.42,2.07,2.07,0,0,0-.06.5,1.66,1.66,0,0,0,.22.89,2,2,0,0,0,1,.66l1.78.77a5.23,5.23,0,0,1,1.07.6,2.78,2.78,0,0,1,.66.67,2.25,2.25,0,0,1,.35.79,4.72,4.72,0,0,1,.1,1,3.13,3.13,0,0,1-1.05,2.63,4.61,4.61,0,0,1-2.92.83,3.83,3.83,0,0,1-2.79-.85,3.28,3.28,0,0,1-.85-2.43v-.47h2.31Z"/><path class="cls-1" d="M391.68,54v2.46H393V58h-1.28v4.65a1.33,1.33,0,0,0,.15.73c.1.15.31.22.63.22h.26l.24,0v1.53c-.24,0-.48,0-.71,0l-.73,0a5.06,5.06,0,0,1-1-.09,1,1,0,0,1-.62-.35,1.67,1.67,0,0,1-.3-.7,6.36,6.36,0,0,1-.08-1.08V58h-1.12V56.48h1.12V54Z"/><path class="cls-1" d="M393.87,58.92a2.92,2.92,0,0,1,.24-1.26,2.22,2.22,0,0,1,.65-.82,2.65,2.65,0,0,1,1-.44,4.49,4.49,0,0,1,1.18-.14,5.42,5.42,0,0,1,1.6.19,2.15,2.15,0,0,1,.94.55,1.82,1.82,0,0,1,.46.84A4.41,4.41,0,0,1,400,58.9v4.53a7.33,7.33,0,0,0,.05.94,3.1,3.1,0,0,0,.22.72h-2.11a1.67,1.67,0,0,1-.17-.44c0-.15-.07-.31-.11-.45h0a1.9,1.9,0,0,1-.89.87,3.62,3.62,0,0,1-1.3.2,2.25,2.25,0,0,1-1-.2,1.8,1.8,0,0,1-.64-.55,2.63,2.63,0,0,1-.35-.8,3.9,3.9,0,0,1,0-1.92,1.92,1.92,0,0,1,.39-.75,2.19,2.19,0,0,1,.67-.52,5.3,5.3,0,0,1,1-.37l1.24-.33a1.47,1.47,0,0,0,.69-.35,1,1,0,0,0,.19-.66,1.17,1.17,0,0,0-.23-.78,1,1,0,0,0-.79-.28.93.93,0,0,0-.77.31,1.21,1.21,0,0,0-.25.81v.24h-2Zm3.55,2.15a2.71,2.71,0,0,1-.46.15,1.73,1.73,0,0,0-1,.48,1.36,1.36,0,0,0-.29.91,1.87,1.87,0,0,0,.19.85.69.69,0,0,0,.64.35,1.58,1.58,0,0,0,.47-.07,1.54,1.54,0,0,0,.44-.23,1.24,1.24,0,0,0,.45-1V60.79A2.31,2.31,0,0,1,397.42,61.07Z"/><path class="cls-1" d="M404.43,54v2.46h1.28V58h-1.28v4.65a1.33,1.33,0,0,0,.15.73.75.75,0,0,0,.64.22h.25l.24,0v1.53c-.24,0-.48,0-.71,0l-.73,0a5.06,5.06,0,0,1-1-.09,1,1,0,0,1-.62-.35,1.67,1.67,0,0,1-.3-.7,6.36,6.36,0,0,1-.08-1.08V58H401.1V56.48h1.12V54Z"/><path class="cls-1" d="M408.53,61.81a6,6,0,0,0,.05.75,2.4,2.4,0,0,0,.19.64,1.24,1.24,0,0,0,.33.44.76.76,0,0,0,.52.17.88.88,0,0,0,.81-.4,2.91,2.91,0,0,0,.35-1.21h2a3.42,3.42,0,0,1-.8,2.28,3,3,0,0,1-2.32.79,3.71,3.71,0,0,1-1.87-.4,2.55,2.55,0,0,1-1-1.06,4.31,4.31,0,0,1-.39-1.47c-.05-.54-.07-1.09-.07-1.63a11.32,11.32,0,0,1,.12-1.67,4,4,0,0,1,.48-1.42,2.52,2.52,0,0,1,1-1,3.69,3.69,0,0,1,1.79-.37,3.47,3.47,0,0,1,1.58.31,2.43,2.43,0,0,1,1,.88,3.87,3.87,0,0,1,.48,1.38,12.27,12.27,0,0,1,.13,1.8v.49h-4.37Zm2.19-2.87a2.21,2.21,0,0,0-.17-.64.88.88,0,0,0-.33-.4,1.06,1.06,0,0,0-.56-.14.9.9,0,0,0-.55.16,1,1,0,0,0-.34.4,1.88,1.88,0,0,0-.19.55,4.07,4.07,0,0,0-.05.61v.33h2.25Q410.77,59.32,410.72,58.94Z"/><path class="cls-1" d="M415.82,62.56a1.33,1.33,0,0,0,.3.91,1.07,1.07,0,0,0,.86.34,1.21,1.21,0,0,0,.81-.25,1,1,0,0,0,.31-.77.79.79,0,0,0-.24-.63,1.89,1.89,0,0,0-.56-.35l-1.55-.56a2.92,2.92,0,0,1-1.38-.9,2.34,2.34,0,0,1-.47-1.5,2.81,2.81,0,0,1,.18-1,2.07,2.07,0,0,1,.56-.82,2.74,2.74,0,0,1,1-.56,4.44,4.44,0,0,1,1.45-.21,3.26,3.26,0,0,1,2.23.64,2.3,2.3,0,0,1,.72,1.81v.35h-2a1.76,1.76,0,0,0-.21-1,.87.87,0,0,0-.76-.32,1.16,1.16,0,0,0-.73.24.79.79,0,0,0-.31.69.89.89,0,0,0,.2.58,1.52,1.52,0,0,0,.76.43l1.32.45a3,3,0,0,1,1.48.92,2.54,2.54,0,0,1,.43,1.54A2.72,2.72,0,0,1,420,63.8a2.21,2.21,0,0,1-.67.84,2.39,2.39,0,0,1-1,.48,5.19,5.19,0,0,1-1.29.15,5.64,5.64,0,0,1-1.55-.18,2.21,2.21,0,0,1-1-.53,1.94,1.94,0,0,1-.51-.85,4.37,4.37,0,0,1-.14-1.13v-.3h2Z"/><path class="cls-1" d="M430.54,56.4a2,2,0,0,0-.24-.61,1.52,1.52,0,0,0-.4-.47,1,1,0,0,0-.61-.18,1.24,1.24,0,0,0-1.19.93,9,9,0,0,0-.37,3.07q0,1,.06,1.86a7.15,7.15,0,0,0,.23,1.41,2.13,2.13,0,0,0,.48.9,1.09,1.09,0,0,0,.81.31,1.23,1.23,0,0,0,.46-.11,1.61,1.61,0,0,0,.46-.34,1.79,1.79,0,0,0,.36-.57,2,2,0,0,0,.15-.8V60.63h-1.52v-1.7h3.72v6.16h-1.69V64h0a2.58,2.58,0,0,1-1,.95,3.33,3.33,0,0,1-1.4.28,3.57,3.57,0,0,1-1.72-.37,2.47,2.47,0,0,1-1-1.14,5.65,5.65,0,0,1-.51-1.89,24.89,24.89,0,0,1-.13-2.62,14.58,14.58,0,0,1,.19-2.53,5,5,0,0,1,.63-1.81,2.9,2.9,0,0,1,1.18-1.1,4.18,4.18,0,0,1,1.84-.37,3.48,3.48,0,0,1,2.72.94,3.88,3.88,0,0,1,.84,2.68h-2.21A3.9,3.9,0,0,0,430.54,56.4Z"/><path class="cls-1" d="M434.42,58.84a3.74,3.74,0,0,1,.57-1.42,2.52,2.52,0,0,1,1.05-.86,3.76,3.76,0,0,1,1.59-.3,4.2,4.2,0,0,1,1.65.26,2.37,2.37,0,0,1,1,.86,3.63,3.63,0,0,1,.54,1.42,10.61,10.61,0,0,1,.16,2,10.33,10.33,0,0,1-.17,2,3.82,3.82,0,0,1-.58,1.42,2.49,2.49,0,0,1-1,.84,4.13,4.13,0,0,1-1.59.27A4.22,4.22,0,0,1,436,65a2.3,2.3,0,0,1-1-.83,4,4,0,0,1-.54-1.43,10.54,10.54,0,0,1-.16-2A9.38,9.38,0,0,1,434.42,58.84ZM436.48,62a4,4,0,0,0,.15,1,1.38,1.38,0,0,0,.36.63.91.91,0,0,0,.64.22.93.93,0,0,0,.93-.7,7.49,7.49,0,0,0,.26-2.32,7.44,7.44,0,0,0-.26-2.32.94.94,0,0,0-.93-.71A.91.91,0,0,0,437,58a1.34,1.34,0,0,0-.36.62,4.21,4.21,0,0,0-.15,1c0,.37,0,.78,0,1.22S436.46,61.63,436.48,62Z"/><path class="cls-1" d="M448.66,56.48l-2.16,8.61h-2.56l-2.23-8.61H444l1.23,6.16h0l1.17-6.16Z"/><path class="cls-1" d="M451.52,61.81a4.56,4.56,0,0,0,.06.75,2.08,2.08,0,0,0,.18.64,1.16,1.16,0,0,0,.34.44.72.72,0,0,0,.51.17.88.88,0,0,0,.81-.4,3,3,0,0,0,.36-1.21h2a3.42,3.42,0,0,1-.8,2.28,3,3,0,0,1-2.32.79,3.74,3.74,0,0,1-1.87-.4,2.46,2.46,0,0,1-1-1.06,4.1,4.1,0,0,1-.4-1.47c0-.54-.07-1.09-.07-1.63a11.32,11.32,0,0,1,.12-1.67,4,4,0,0,1,.48-1.42,2.59,2.59,0,0,1,1-1,3.71,3.71,0,0,1,1.8-.37,3.43,3.43,0,0,1,1.57.31,2.43,2.43,0,0,1,1,.88,3.87,3.87,0,0,1,.48,1.38,12.27,12.27,0,0,1,.13,1.8v.49h-4.37Zm2.19-2.87a2.21,2.21,0,0,0-.17-.64.88.88,0,0,0-.33-.4,1,1,0,0,0-.55-.14.91.91,0,0,0-.56.16,1,1,0,0,0-.34.4,1.62,1.62,0,0,0-.18.55,3.08,3.08,0,0,0-.06.61v.33h2.26C453.76,59.48,453.74,59.19,453.71,58.94Z"/><path class="cls-1" d="M459.31,56.48v1.16h0a3.17,3.17,0,0,1,.82-1,1.79,1.79,0,0,1,1.17-.38h.2l.2,0V58.4l-.35,0H461a2.38,2.38,0,0,0-.58.08,1.36,1.36,0,0,0-.52.27,1.33,1.33,0,0,0-.39.48,1.71,1.71,0,0,0-.14.72v5.17H457.2V56.48Z"/><path class="cls-1" d="M464.8,56.48v1h0a2.21,2.21,0,0,1,.91-.93,2.69,2.69,0,0,1,1.28-.3,2.17,2.17,0,0,1,1.63.58,2.57,2.57,0,0,1,.56,1.87v6.38H467V59.16a1.48,1.48,0,0,0-.23-.94.88.88,0,0,0-.72-.26c-.78,0-1.16.47-1.16,1.42v5.71h-2.21V56.48Z"/><path class="cls-1" d="M473,56.48v.88h0a2.55,2.55,0,0,1,.94-.84,2.64,2.64,0,0,1,1.24-.26,2.3,2.3,0,0,1,1.29.35,1.76,1.76,0,0,1,.69,1h0a2,2,0,0,1,.83-1,2.56,2.56,0,0,1,1.35-.34,1.92,1.92,0,0,1,1.62.66,3,3,0,0,1,.52,1.92v6.25h-2.21v-6a1.51,1.51,0,0,0-.19-.84.77.77,0,0,0-.67-.28,1.05,1.05,0,0,0-.84.35,1.65,1.65,0,0,0-.31,1.12v5.66h-2.21v-6a1.51,1.51,0,0,0-.2-.84.74.74,0,0,0-.66-.28,1.05,1.05,0,0,0-.84.35,1.65,1.65,0,0,0-.31,1.12v5.66h-2.21V56.48Z"/><path class="cls-1" d="M485,61.81a4.56,4.56,0,0,0,.06.75,2.84,2.84,0,0,0,.18.64,1.27,1.27,0,0,0,.34.44.75.75,0,0,0,.51.17.9.9,0,0,0,.82-.4,2.91,2.91,0,0,0,.35-1.21h2a3.42,3.42,0,0,1-.8,2.28,3,3,0,0,1-2.32.79,3.74,3.74,0,0,1-1.87-.4,2.46,2.46,0,0,1-1-1.06,4.31,4.31,0,0,1-.39-1.47c-.05-.54-.07-1.09-.07-1.63a11.32,11.32,0,0,1,.12-1.67,4,4,0,0,1,.48-1.42,2.52,2.52,0,0,1,1-1,3.67,3.67,0,0,1,1.79-.37,3.5,3.5,0,0,1,1.58.31,2.34,2.34,0,0,1,1,.88,3.52,3.52,0,0,1,.48,1.38,11,11,0,0,1,.13,1.8v.49H485Zm2.2-2.87a2.58,2.58,0,0,0-.17-.64.84.84,0,0,0-.34-.4,1,1,0,0,0-.55-.14.88.88,0,0,0-.55.16,1,1,0,0,0-.35.4,2.22,2.22,0,0,0-.18.55,3.08,3.08,0,0,0-.06.61v.33h2.26Q487.27,59.32,487.22,58.94Z"/><path class="cls-1" d="M492.82,56.48v1h0a2.15,2.15,0,0,1,.91-.93,2.66,2.66,0,0,1,1.28-.3,2.14,2.14,0,0,1,1.62.58,2.57,2.57,0,0,1,.57,1.87v6.38H495V59.16a1.49,1.49,0,0,0-.22-.94.88.88,0,0,0-.72-.26c-.78,0-1.17.47-1.17,1.42v5.71H490.7V56.48Z"/><path class="cls-1" d="M501.55,54v2.46h1.28V58h-1.28v4.65a1.33,1.33,0,0,0,.15.73.75.75,0,0,0,.64.22h.25l.24,0v1.53c-.24,0-.48,0-.71,0l-.73,0a5.06,5.06,0,0,1-1.05-.09,1,1,0,0,1-.62-.35,1.67,1.67,0,0,1-.3-.7,6.36,6.36,0,0,1-.08-1.08V58h-1.12V56.48h1.12V54Z"/><path class="cls-1" d="M71.52,212.49h0v-7.82h2.11v11.42H71l-2.82-8h0v8H66.08V204.67h2.65Z"/><path class="cls-1" d="M75.34,209.92a2.89,2.89,0,0,1,.24-1.26,2.22,2.22,0,0,1,.65-.82,2.84,2.84,0,0,1,1-.45,5.54,5.54,0,0,1,1.18-.13,5.42,5.42,0,0,1,1.6.19,2.24,2.24,0,0,1,.94.54,1.81,1.81,0,0,1,.46.85,4.41,4.41,0,0,1,.12,1.06v4.53a7.33,7.33,0,0,0,.05.94,3.1,3.1,0,0,0,.22.72H79.65a1.67,1.67,0,0,1-.17-.44c0-.15-.07-.31-.11-.45h0a1.93,1.93,0,0,1-.88.87,3.72,3.72,0,0,1-1.31.2,2.25,2.25,0,0,1-1-.2,1.69,1.69,0,0,1-.63-.55,2.42,2.42,0,0,1-.36-.8,3.9,3.9,0,0,1,0-1.92,2.06,2.06,0,0,1,.39-.75,2.19,2.19,0,0,1,.67-.52,5.58,5.58,0,0,1,1-.37l1.25-.33a1.3,1.3,0,0,0,.68-.35,1,1,0,0,0,.19-.66,1.17,1.17,0,0,0-.23-.78,1,1,0,0,0-.79-.28.93.93,0,0,0-.77.31,1.21,1.21,0,0,0-.25.81v.24h-2Zm3.55,2.15a2.71,2.71,0,0,1-.46.15,1.67,1.67,0,0,0-1,.48,1.36,1.36,0,0,0-.29.91,1.84,1.84,0,0,0,.19.85.69.69,0,0,0,.65.35,1.56,1.56,0,0,0,.46-.07,1.42,1.42,0,0,0,.44-.23,1.24,1.24,0,0,0,.45-1v-1.69A1.89,1.89,0,0,1,78.89,212.07Z"/><path class="cls-1" d="M85.9,205v2.46h1.28V209H85.9v4.65a1.33,1.33,0,0,0,.15.73.75.75,0,0,0,.64.22h.25l.24,0v1.53c-.24,0-.48,0-.71,0l-.73,0a5.13,5.13,0,0,1-1-.09,1,1,0,0,1-.62-.35,1.67,1.67,0,0,1-.3-.7,6.36,6.36,0,0,1-.08-1.08V209H82.57v-1.51h1.12V205Z"/><path class="cls-1" d="M90.4,204.54v1.89H88.19v-1.89Zm0,2.94v8.61H88.19v-8.61Z"/><path class="cls-1" d="M92,209.84a3.91,3.91,0,0,1,.57-1.42,2.52,2.52,0,0,1,1.05-.86,3.76,3.76,0,0,1,1.59-.3,4.17,4.17,0,0,1,1.65.26,2.26,2.26,0,0,1,1,.86,3.8,3.8,0,0,1,.55,1.42,11.53,11.53,0,0,1,.16,2,9.52,9.52,0,0,1-.18,2,3.63,3.63,0,0,1-.58,1.41,2.32,2.32,0,0,1-1,.84,4,4,0,0,1-1.6.28,4.13,4.13,0,0,1-1.64-.25,2.2,2.2,0,0,1-1-.83,3.78,3.78,0,0,1-.55-1.43,11.46,11.46,0,0,1-.16-2A9.38,9.38,0,0,1,92,209.84ZM94.06,213a4,4,0,0,0,.15,1,1.38,1.38,0,0,0,.36.63.91.91,0,0,0,.64.22.93.93,0,0,0,.93-.7,10.48,10.48,0,0,0,0-4.64.94.94,0,0,0-.93-.71.91.91,0,0,0-.64.23,1.34,1.34,0,0,0-.36.62,4.21,4.21,0,0,0-.15,1c0,.37,0,.78,0,1.22S94,212.63,94.06,213Z"/><path class="cls-1" d="M102.06,207.48v1h0a2.17,2.17,0,0,1,.92-.93,2.66,2.66,0,0,1,1.28-.3,2.16,2.16,0,0,1,1.62.58,2.57,2.57,0,0,1,.57,1.87v6.38h-2.21v-5.94a1.46,1.46,0,0,0-.22-.93.88.88,0,0,0-.72-.26c-.78,0-1.17.47-1.17,1.42v5.71H100v-8.61Z"/><path class="cls-1" d="M108.09,209.92a2.89,2.89,0,0,1,.24-1.26,2.22,2.22,0,0,1,.65-.82,2.84,2.84,0,0,1,1-.45,5.54,5.54,0,0,1,1.18-.13,5.42,5.42,0,0,1,1.6.19,2.24,2.24,0,0,1,.94.54,1.81,1.81,0,0,1,.46.85,4.41,4.41,0,0,1,.12,1.06v4.53a7.33,7.33,0,0,0,.05.94,3.1,3.1,0,0,0,.22.72H112.4a1.67,1.67,0,0,1-.17-.44c0-.15-.07-.31-.1-.45h0a1.93,1.93,0,0,1-.88.87,3.68,3.68,0,0,1-1.31.2,2.18,2.18,0,0,1-1-.2,1.72,1.72,0,0,1-.64-.55,2.65,2.65,0,0,1-.36-.8,3.9,3.9,0,0,1,0-1.92,2.23,2.23,0,0,1,.39-.75,2.19,2.19,0,0,1,.67-.52,5.58,5.58,0,0,1,1-.37l1.25-.33a1.3,1.3,0,0,0,.68-.35,1,1,0,0,0,.2-.66,1.17,1.17,0,0,0-.24-.78,1,1,0,0,0-.79-.28.93.93,0,0,0-.77.31,1.21,1.21,0,0,0-.25.81v.24h-2Zm3.56,2.15a2.79,2.79,0,0,1-.47.15,1.67,1.67,0,0,0-1,.48,1.36,1.36,0,0,0-.29.91,1.72,1.72,0,0,0,.2.85.67.67,0,0,0,.64.35,1.51,1.51,0,0,0,.46-.07,1.42,1.42,0,0,0,.44-.23,1.28,1.28,0,0,0,.46-1v-1.69A2.31,2.31,0,0,1,111.65,212.07Z"/><path class="cls-1" d="M118.25,204.67v11.42h-2.2V204.67Z"/><path class="cls-1" d="M128.61,206.71a1.09,1.09,0,0,0-1.08-.57,1.12,1.12,0,0,0-.71.23,1.59,1.59,0,0,0-.44.75,6.11,6.11,0,0,0-.22,1.36c0,.56-.07,1.25-.07,2.06a19.75,19.75,0,0,0,.09,2.1,4.93,4.93,0,0,0,.27,1.24,1.17,1.17,0,0,0,.47.59,1.33,1.33,0,0,0,.65.15,1.69,1.69,0,0,0,.56-.1,1,1,0,0,0,.46-.42,2.57,2.57,0,0,0,.3-.88,7.55,7.55,0,0,0,.12-1.5h2.3a10.92,10.92,0,0,1-.14,1.76,4.1,4.1,0,0,1-.54,1.46,2.69,2.69,0,0,1-1.1,1,4.3,4.3,0,0,1-1.85.35,4.34,4.34,0,0,1-2.07-.42,2.82,2.82,0,0,1-1.17-1.2,5.33,5.33,0,0,1-.53-1.87,24,24,0,0,1,0-4.79,5.33,5.33,0,0,1,.53-1.88,3,3,0,0,1,1.17-1.23,4.21,4.21,0,0,1,2.07-.44,4,4,0,0,1,1.94.4,2.77,2.77,0,0,1,1.07,1,3.6,3.6,0,0,1,.44,1.33,12.77,12.77,0,0,1,.08,1.33h-2.3A4.08,4.08,0,0,0,128.61,206.71Z"/><path class="cls-1" d="M134.83,207.48v1.16h0a3.17,3.17,0,0,1,.82-1,1.85,1.85,0,0,1,1.17-.38h.2l.2,0v2.11l-.35,0h-.34a2.32,2.32,0,0,0-.58.08,1.4,1.4,0,0,0-.53.27,1.31,1.31,0,0,0-.38.48,1.57,1.57,0,0,0-.14.72v5.17h-2.21v-8.61Z"/><path class="cls-1" d="M140.09,212.81a4.65,4.65,0,0,0,.06.75,2.84,2.84,0,0,0,.18.64,1.27,1.27,0,0,0,.34.44.75.75,0,0,0,.51.17.9.9,0,0,0,.82-.4,3.07,3.07,0,0,0,.35-1.21h2a3.42,3.42,0,0,1-.8,2.28,3,3,0,0,1-2.32.79,3.74,3.74,0,0,1-1.87-.4,2.46,2.46,0,0,1-1-1.06,4.09,4.09,0,0,1-.39-1.47c-.05-.54-.08-1.09-.08-1.63A11.32,11.32,0,0,1,138,210a4,4,0,0,1,.48-1.42,2.55,2.55,0,0,1,1-1,3.64,3.64,0,0,1,1.79-.37,3.43,3.43,0,0,1,1.57.31,2.3,2.3,0,0,1,1,.88,3.52,3.52,0,0,1,.48,1.38,11,11,0,0,1,.13,1.8v.49h-4.37Zm2.19-2.87a2.22,2.22,0,0,0-.16-.64.9.9,0,0,0-.34-.4,1,1,0,0,0-.55-.14.86.86,0,0,0-.55.16,1.1,1.1,0,0,0-.35.39,2.3,2.3,0,0,0-.18.56,3.08,3.08,0,0,0-.06.61v.33h2.26A7,7,0,0,0,142.28,209.94Z"/><path class="cls-1" d="M150.16,215.18a2.26,2.26,0,0,1-.83.85,2.38,2.38,0,0,1-1.12.24,2.18,2.18,0,0,1-2-1,6.84,6.84,0,0,1-.65-3.44,7,7,0,0,1,.65-3.47,2.15,2.15,0,0,1,2-1.06,2,2,0,0,1,1.06.26,2.47,2.47,0,0,1,.79.76h0v-3.61h2.21v11.42h-2.11v-.91ZM148,213.91a.91.91,0,0,0,.94.71.92.92,0,0,0,.95-.71,10.81,10.81,0,0,0,0-4.24.91.91,0,0,0-.95-.71.9.9,0,0,0-.94.71,10.32,10.32,0,0,0,0,4.24Z"/><path class="cls-1" d="M156.22,204.54v1.89H154v-1.89Zm0,2.94v8.61H154v-8.61Z"/><path class="cls-1" d="M160.62,205v2.46h1.28V209h-1.28v4.65a1.33,1.33,0,0,0,.15.73.74.74,0,0,0,.64.22h.25l.24,0v1.53c-.24,0-.48,0-.71,0l-.73,0a5.06,5.06,0,0,1-1.05-.09,1,1,0,0,1-.62-.35,1.67,1.67,0,0,1-.3-.7,6.36,6.36,0,0,1-.08-1.08V209h-1.12v-1.51h1.12V205Z"/><path class="cls-1" d="M169.05,212.64a4.88,4.88,0,0,0,.06.79,1.81,1.81,0,0,0,.21.62,1.1,1.1,0,0,0,.41.42,1.36,1.36,0,0,0,.67.15,1.33,1.33,0,0,0,.67-.15,1.1,1.1,0,0,0,.41-.42,1.62,1.62,0,0,0,.2-.62,4.88,4.88,0,0,0,.06-.79v-8H174v8a4.7,4.7,0,0,1-.3,1.8,2.73,2.73,0,0,1-.82,1.12,2.67,2.67,0,0,1-1.16.56,6.1,6.1,0,0,1-1.36.15,6.68,6.68,0,0,1-1.36-.13,2.82,2.82,0,0,1-1.17-.52,2.73,2.73,0,0,1-.82-1.11,4.94,4.94,0,0,1-.3-1.87v-8h2.3Z"/><path class="cls-1" d="M177.71,207.48v1h0a2.21,2.21,0,0,1,.91-.93,2.69,2.69,0,0,1,1.28-.3,2.17,2.17,0,0,1,1.63.58,2.57,2.57,0,0,1,.56,1.87v6.38h-2.2v-5.94a1.45,1.45,0,0,0-.23-.93A.88.88,0,0,0,179,209c-.78,0-1.17.47-1.17,1.42v5.71h-2.2v-8.61Z"/><path class="cls-1" d="M186,204.54v1.89h-2.2v-1.89Zm0,2.94v8.61h-2.2v-8.61Z"/><path class="cls-1" d="M187.64,209.84a3.75,3.75,0,0,1,.58-1.42,2.52,2.52,0,0,1,1.05-.86,3.76,3.76,0,0,1,1.59-.3,4.2,4.2,0,0,1,1.65.26,2.31,2.31,0,0,1,1,.86,3.79,3.79,0,0,1,.54,1.42,10.61,10.61,0,0,1,.16,2,10.33,10.33,0,0,1-.17,2,3.63,3.63,0,0,1-.58,1.41,2.4,2.4,0,0,1-1.05.84,3.94,3.94,0,0,1-1.59.28,4.22,4.22,0,0,1-1.65-.25,2.25,2.25,0,0,1-1-.83,3.78,3.78,0,0,1-.54-1.43,10.54,10.54,0,0,1-.16-2A10.18,10.18,0,0,1,187.64,209.84Zm2.07,3.16a4,4,0,0,0,.15,1,1.38,1.38,0,0,0,.36.63.89.89,0,0,0,.64.22.93.93,0,0,0,.93-.7,10.89,10.89,0,0,0,0-4.64.94.94,0,0,0-.93-.71.9.9,0,0,0-.64.23,1.34,1.34,0,0,0-.36.62,4.21,4.21,0,0,0-.15,1c0,.37,0,.78,0,1.22S189.69,212.63,189.71,213Z"/><path class="cls-1" d="M197.71,207.48v1h0a2.15,2.15,0,0,1,.91-.93,2.69,2.69,0,0,1,1.28-.3,2.17,2.17,0,0,1,1.63.58,2.57,2.57,0,0,1,.56,1.87v6.38h-2.2v-5.94a1.45,1.45,0,0,0-.23-.93A.88.88,0,0,0,199,209c-.78,0-1.17.47-1.17,1.42v5.71h-2.2v-8.61Z"/><path class="cls-1" d="M212.3,204.67l3,11.42h-2.4l-.52-2.41h-3l-.53,2.41h-2.4l3-11.42Zm-.3,7.12-1.11-5.14h0l-1.1,5.14Z"/><path class="cls-1" d="M220.6,215.18a2.24,2.24,0,0,1-.82.85,2.39,2.39,0,0,1-1.13.24,2.2,2.2,0,0,1-2-1,7,7,0,0,1-.64-3.44,7.13,7.13,0,0,1,.64-3.47,2.17,2.17,0,0,1,2-1.06,2,2,0,0,1,1.07.26,2.57,2.57,0,0,1,.79.76h0v-3.61h2.21v11.42h-2.11v-.91Zm-2.16-1.27a.9.9,0,0,0,.93.71.91.91,0,0,0,.95-.71,10.32,10.32,0,0,0,0-4.24.9.9,0,0,0-.95-.71.89.89,0,0,0-.93.71,10.32,10.32,0,0,0,0,4.24Z"/><path class="cls-1" d="M226.49,207.48v.88h0a2.55,2.55,0,0,1,.94-.84,2.67,2.67,0,0,1,1.24-.26,2.3,2.3,0,0,1,1.29.35,1.72,1.72,0,0,1,.69,1h0a2,2,0,0,1,.82-1,2.56,2.56,0,0,1,1.35-.34,2,2,0,0,1,1.63.66,3.11,3.11,0,0,1,.52,1.92v6.25h-2.21v-6a1.5,1.5,0,0,0-.2-.83A.77.77,0,0,0,232,209a1.05,1.05,0,0,0-.84.35,1.7,1.7,0,0,0-.31,1.12v5.66H228.6v-6a1.42,1.42,0,0,0-.2-.83.74.74,0,0,0-.66-.28,1.05,1.05,0,0,0-.84.35,1.65,1.65,0,0,0-.31,1.12v5.66h-2.21v-8.61Z"/><path class="cls-1" d="M239,204.54v1.89h-2.21v-1.89Zm0,2.94v8.61h-2.21v-8.61Z"/><path class="cls-1" d="M242.78,207.48v1h0a2.21,2.21,0,0,1,.91-.93,2.69,2.69,0,0,1,1.28-.3,2.17,2.17,0,0,1,1.63.58,2.57,2.57,0,0,1,.57,1.87v6.38H245v-5.94a1.45,1.45,0,0,0-.23-.93A.88.88,0,0,0,244,209c-.77,0-1.16.47-1.16,1.42v5.71h-2.21v-8.61Z"/><path class="cls-1" d="M251.12,204.54v1.89h-2.21v-1.89Zm0,2.94v8.61h-2.21v-8.61Z"/><path class="cls-1" d="M254.44,213.56a1.33,1.33,0,0,0,.3.91,1.07,1.07,0,0,0,.86.34,1.21,1.21,0,0,0,.81-.25,1,1,0,0,0,.31-.77.83.83,0,0,0-.24-.64,2.09,2.09,0,0,0-.56-.34l-1.56-.56a2.94,2.94,0,0,1-1.37-.9,2.34,2.34,0,0,1-.47-1.5,2.81,2.81,0,0,1,.18-1,2.07,2.07,0,0,1,.56-.82,2.74,2.74,0,0,1,1-.56,4.44,4.44,0,0,1,1.45-.21,3.28,3.28,0,0,1,2.23.64,2.3,2.3,0,0,1,.72,1.81v.35h-2a1.82,1.82,0,0,0-.21-1,.89.89,0,0,0-.76-.31,1.22,1.22,0,0,0-.73.23.82.82,0,0,0-.31.7.89.89,0,0,0,.2.58,1.52,1.52,0,0,0,.76.43l1.32.45a3,3,0,0,1,1.48.92,2.54,2.54,0,0,1,.43,1.54,2.72,2.72,0,0,1-.24,1.19,2.21,2.21,0,0,1-.67.84,2.39,2.39,0,0,1-1,.48,5.19,5.19,0,0,1-1.29.15,5.64,5.64,0,0,1-1.55-.18,2.21,2.21,0,0,1-1-.53,1.94,1.94,0,0,1-.51-.85,4.43,4.43,0,0,1-.14-1.13v-.3h2Z"/><path class="cls-1" d="M262.78,205v2.46h1.28V209h-1.28v4.65a1.33,1.33,0,0,0,.15.73c.1.15.31.22.63.22h.26l.24,0v1.53c-.25,0-.48,0-.71,0l-.73,0a5,5,0,0,1-1.05-.09,1,1,0,0,1-.62-.35,1.55,1.55,0,0,1-.3-.7,6.36,6.36,0,0,1-.08-1.08V209h-1.12v-1.51h1.12V205Z"/><path class="cls-1" d="M267.1,207.48v1.16h0a3.17,3.17,0,0,1,.82-1,1.85,1.85,0,0,1,1.17-.38h.2l.2,0v2.11l-.35,0h-.34a2.32,2.32,0,0,0-.58.08,1.4,1.4,0,0,0-.53.27,1.31,1.31,0,0,0-.38.48,1.57,1.57,0,0,0-.14.72v5.17H265v-8.61Z"/><path class="cls-1" d="M270.46,209.92a2.89,2.89,0,0,1,.24-1.26,2.22,2.22,0,0,1,.65-.82,2.84,2.84,0,0,1,1-.45,5.52,5.52,0,0,1,1.17-.13,5.38,5.38,0,0,1,1.6.19,2.28,2.28,0,0,1,.95.54,1.89,1.89,0,0,1,.45.85,4.41,4.41,0,0,1,.12,1.06v4.53a5.65,5.65,0,0,0,.06.94,3.61,3.61,0,0,0,.21.72h-2.11a1.65,1.65,0,0,1-.16-.44c0-.15-.08-.31-.11-.45h0a1.94,1.94,0,0,1-.89.87,3.62,3.62,0,0,1-1.3.2,2.22,2.22,0,0,1-1-.2,1.72,1.72,0,0,1-.64-.55,2.41,2.41,0,0,1-.35-.8,3.24,3.24,0,0,1-.11-.87,3.68,3.68,0,0,1,.13-1,1.92,1.92,0,0,1,.39-.75,2.08,2.08,0,0,1,.67-.52,5.45,5.45,0,0,1,1-.37l1.25-.33a1.38,1.38,0,0,0,.69-.35,1,1,0,0,0,.19-.66,1.23,1.23,0,0,0-.23-.78,1,1,0,0,0-.79-.28.93.93,0,0,0-.77.31,1.21,1.21,0,0,0-.26.81v.24h-2Zm3.55,2.15a2.71,2.71,0,0,1-.46.15,1.67,1.67,0,0,0-1,.48,1.31,1.31,0,0,0-.29.91,1.72,1.72,0,0,0,.19.85.68.68,0,0,0,.64.35,1.58,1.58,0,0,0,.47-.07,1.69,1.69,0,0,0,.44-.23,1.23,1.23,0,0,0,.32-.42,1.28,1.28,0,0,0,.13-.61v-1.69A2.31,2.31,0,0,1,274,212.07Z"/><path class="cls-1" d="M281,205v2.46h1.28V209H281v4.65a1.33,1.33,0,0,0,.15.73c.1.15.31.22.63.22h.26l.24,0v1.53c-.25,0-.48,0-.71,0l-.73,0a5,5,0,0,1-1.05-.09,1,1,0,0,1-.62-.35,1.45,1.45,0,0,1-.3-.7,6.36,6.36,0,0,1-.08-1.08V209h-1.12v-1.51h1.12V205Z"/><path class="cls-1" d="M285.52,204.54v1.89h-2.21v-1.89Zm0,2.94v8.61h-2.21v-8.61Z"/><path class="cls-1" d="M287.12,209.84a3.59,3.59,0,0,1,.57-1.42,2.52,2.52,0,0,1,1.05-.86,3.76,3.76,0,0,1,1.59-.3,4.2,4.2,0,0,1,1.65.26,2.31,2.31,0,0,1,1,.86,3.63,3.63,0,0,1,.54,1.42,10.61,10.61,0,0,1,.16,2,10.33,10.33,0,0,1-.17,2,3.63,3.63,0,0,1-.58,1.41,2.35,2.35,0,0,1-1.05.84,3.94,3.94,0,0,1-1.59.28,4.22,4.22,0,0,1-1.65-.25,2.3,2.3,0,0,1-1-.83,4,4,0,0,1-.54-1.43,10.54,10.54,0,0,1-.16-2A9.38,9.38,0,0,1,287.12,209.84Zm2.06,3.16a4,4,0,0,0,.15,1,1.38,1.38,0,0,0,.36.63.89.89,0,0,0,.64.22.93.93,0,0,0,.93-.7,10.48,10.48,0,0,0,0-4.64.94.94,0,0,0-.93-.71.9.9,0,0,0-.64.23,1.34,1.34,0,0,0-.36.62,4.21,4.21,0,0,0-.15,1c0,.37,0,.78,0,1.22S289.16,212.63,289.18,213Z"/><path class="cls-1" d="M297.18,207.48v1h0a2.15,2.15,0,0,1,.91-.93,2.69,2.69,0,0,1,1.28-.3,2.17,2.17,0,0,1,1.63.58,2.61,2.61,0,0,1,.56,1.87v6.38h-2.2v-5.94a1.45,1.45,0,0,0-.23-.93.88.88,0,0,0-.72-.26c-.78,0-1.17.47-1.17,1.42v5.71h-2.2v-8.61Z"/><path class="cls-1" d="M305.47,215.68a6.69,6.69,0,0,1-.09,1.12,2.56,2.56,0,0,1-.33.93,1.9,1.9,0,0,1-.65.64,2.37,2.37,0,0,1-1,.31v-1.12a.88.88,0,0,0,.63-.44,1.64,1.64,0,0,0,.21-.82v-.21h-.84V213.6h2.12Z"/><path class="cls-1" d="M310.62,209.92a2.89,2.89,0,0,1,.24-1.26,2.12,2.12,0,0,1,.65-.82,2.84,2.84,0,0,1,1-.45,5.44,5.44,0,0,1,1.17-.13,5.38,5.38,0,0,1,1.6.19,2.28,2.28,0,0,1,.95.54,1.89,1.89,0,0,1,.45.85,4.41,4.41,0,0,1,.12,1.06v4.53a5.65,5.65,0,0,0,.06.94,3.61,3.61,0,0,0,.21.72h-2.11a2.11,2.11,0,0,1-.17-.44c0-.15-.07-.31-.1-.45h0a1.94,1.94,0,0,1-.89.87,3.66,3.66,0,0,1-1.3.2,2.22,2.22,0,0,1-1-.2,1.72,1.72,0,0,1-.64-.55,2.41,2.41,0,0,1-.35-.8,3.24,3.24,0,0,1-.11-.87,4.1,4.1,0,0,1,.12-1,2,2,0,0,1,1.07-1.27,5.45,5.45,0,0,1,1-.37l1.25-.33a1.38,1.38,0,0,0,.69-.35,1,1,0,0,0,.19-.66,1.23,1.23,0,0,0-.23-.78,1,1,0,0,0-.79-.28.93.93,0,0,0-.77.31,1.21,1.21,0,0,0-.26.81v.24h-2Zm3.55,2.15a3,3,0,0,1-.46.15,1.67,1.67,0,0,0-1,.48,1.31,1.31,0,0,0-.29.91,1.72,1.72,0,0,0,.19.85.68.68,0,0,0,.64.35,1.51,1.51,0,0,0,.46-.07,1.42,1.42,0,0,0,.44-.23,1.14,1.14,0,0,0,.33-.42,1.28,1.28,0,0,0,.13-.61v-1.69A2.31,2.31,0,0,1,314.17,212.07Z"/><path class="cls-1" d="M324.71,212.64a4.88,4.88,0,0,0,.06.79,1.81,1.81,0,0,0,.21.62,1.1,1.1,0,0,0,.41.42,1.36,1.36,0,0,0,.67.15,1.3,1.3,0,0,0,.67-.15,1.1,1.1,0,0,0,.41-.42,1.81,1.81,0,0,0,.21-.62,6.43,6.43,0,0,0,0-.79v-8h2.31v8a4.51,4.51,0,0,1-.31,1.8,2.8,2.8,0,0,1-.81,1.12,2.65,2.65,0,0,1-1.17.56,6.1,6.1,0,0,1-1.36.15,6.75,6.75,0,0,1-1.36-.13,2.82,2.82,0,0,1-1.17-.52,2.73,2.73,0,0,1-.82-1.11,4.94,4.94,0,0,1-.3-1.87v-8h2.3Z"/><path class="cls-1" d="M333.5,216.09h-2.11V213.6h2.11Z"/><path class="cls-1" d="M337.18,212.86a4.07,4.07,0,0,0,.06.73,1.2,1.2,0,0,0,.24.55,1.19,1.19,0,0,0,.47.35,1.83,1.83,0,0,0,.75.13,1.51,1.51,0,0,0,.95-.34,1.31,1.31,0,0,0,.42-1.07,1.87,1.87,0,0,0-.1-.66,1.23,1.23,0,0,0-.35-.51,2.21,2.21,0,0,0-.63-.4,8,8,0,0,0-1-.38,8.07,8.07,0,0,1-1.33-.56,3.47,3.47,0,0,1-.94-.71,2.58,2.58,0,0,1-.55-1,3.86,3.86,0,0,1-.18-1.24,3.17,3.17,0,0,1,1-2.52,3.75,3.75,0,0,1,2.59-.84,5.82,5.82,0,0,1,1.42.17,3,3,0,0,1,1.12.54,2.62,2.62,0,0,1,.73,1,3.27,3.27,0,0,1,.27,1.4v.32H339.9a2.3,2.3,0,0,0-.29-1.26,1.06,1.06,0,0,0-1-.44,1.67,1.67,0,0,0-.64.11,1.07,1.07,0,0,0-.41.3,1,1,0,0,0-.21.42,2.73,2.73,0,0,0-.05.5,1.66,1.66,0,0,0,.22.89,2,2,0,0,0,1,.66l1.78.77a5.51,5.51,0,0,1,1.07.6,2.78,2.78,0,0,1,.66.67,2.25,2.25,0,0,1,.35.79,4.75,4.75,0,0,1,.09,1,3.16,3.16,0,0,1-1,2.63,4.63,4.63,0,0,1-2.92.83,3.86,3.86,0,0,1-2.8-.85,3.32,3.32,0,0,1-.84-2.43v-.47h2.31Z"/><path class="cls-1" d="M346,216.09h-2.11V213.6H346Z"/><path class="cls-1" d="M356.19,207.4a1.79,1.79,0,0,0-.23-.61,1.55,1.55,0,0,0-.41-.47,1,1,0,0,0-.6-.18,1.26,1.26,0,0,0-1.2.93,9.3,9.3,0,0,0-.36,3.07c0,.68,0,1.3.06,1.85a7.13,7.13,0,0,0,.23,1.42,2,2,0,0,0,.48.9,1.09,1.09,0,0,0,.81.31,1.23,1.23,0,0,0,.46-.11,1.61,1.61,0,0,0,.46-.34,1.92,1.92,0,0,0,.5-1.37v-1.17h-1.52v-1.7h3.73v6.16h-1.69V215h0a2.45,2.45,0,0,1-1,1,3.29,3.29,0,0,1-1.4.28,3.62,3.62,0,0,1-1.72-.37,2.52,2.52,0,0,1-1-1.14,5.66,5.66,0,0,1-.5-1.89,22.45,22.45,0,0,1-.13-2.62,14.58,14.58,0,0,1,.19-2.53,5,5,0,0,1,.63-1.81,2.9,2.9,0,0,1,1.18-1.1,4.18,4.18,0,0,1,1.84-.37,3.48,3.48,0,0,1,2.72.94,3.88,3.88,0,0,1,.83,2.68h-2.2A3.13,3.13,0,0,0,356.19,207.4Z"/><path class="cls-1" d="M360.07,209.84a3.75,3.75,0,0,1,.58-1.42,2.52,2.52,0,0,1,1.05-.86,3.76,3.76,0,0,1,1.59-.3,4.2,4.2,0,0,1,1.65.26,2.36,2.36,0,0,1,1,.86,4,4,0,0,1,.54,1.42,10.61,10.61,0,0,1,.16,2,9.52,9.52,0,0,1-.18,2,3.48,3.48,0,0,1-.57,1.41,2.4,2.4,0,0,1-1.05.84,3.94,3.94,0,0,1-1.59.28,4.22,4.22,0,0,1-1.65-.25,2.25,2.25,0,0,1-1-.83,3.78,3.78,0,0,1-.54-1.43,10.54,10.54,0,0,1-.16-2A10.18,10.18,0,0,1,360.07,209.84Zm2.07,3.16a4,4,0,0,0,.15,1,1.38,1.38,0,0,0,.36.63.89.89,0,0,0,.64.22.93.93,0,0,0,.93-.7,10.89,10.89,0,0,0,0-4.64.94.94,0,0,0-.93-.71.9.9,0,0,0-.64.23,1.34,1.34,0,0,0-.36.62,4.21,4.21,0,0,0-.15,1c0,.37,0,.78,0,1.22S362.12,212.63,362.14,213Z"/><path class="cls-1" d="M374.31,207.48l-2.16,8.61h-2.56l-2.22-8.61h2.3l1.23,6.16h0l1.16-6.16Z"/><path class="cls-1" d="M377.18,212.81a4.65,4.65,0,0,0,.05.75,2.4,2.4,0,0,0,.19.64,1.14,1.14,0,0,0,.33.44.75.75,0,0,0,.51.17.89.89,0,0,0,.82-.4,2.91,2.91,0,0,0,.35-1.21h2a3.47,3.47,0,0,1-.8,2.28,3,3,0,0,1-2.32.79,3.78,3.78,0,0,1-1.88-.4,2.52,2.52,0,0,1-1-1.06,4.31,4.31,0,0,1-.39-1.47c-.05-.54-.07-1.09-.07-1.63a11.32,11.32,0,0,1,.12-1.67,4,4,0,0,1,.48-1.42,2.52,2.52,0,0,1,1-1,3.67,3.67,0,0,1,1.79-.37,3.47,3.47,0,0,1,1.58.31,2.43,2.43,0,0,1,1,.88,3.87,3.87,0,0,1,.48,1.38,12.34,12.34,0,0,1,.12,1.8v.49h-4.36Zm2.19-2.87a2.21,2.21,0,0,0-.17-.64.84.84,0,0,0-.34-.4,1,1,0,0,0-.55-.14.88.88,0,0,0-.55.16,1.07,1.07,0,0,0-.34.39,2,2,0,0,0-.19.56,3.08,3.08,0,0,0-.05.61v.33h2.25Q379.42,210.32,379.37,209.94Z"/><path class="cls-1" d="M385,207.48v1.16h0a3,3,0,0,1,.82-1,1.84,1.84,0,0,1,1.16-.38h.2l.2,0v2.11l-.34,0h-.34a2.25,2.25,0,0,0-.58.08,1.4,1.4,0,0,0-.53.27,1.21,1.21,0,0,0-.38.48,1.57,1.57,0,0,0-.15.72v5.17h-2.2v-8.61Z"/><path class="cls-1" d="M390.46,207.48v1h0a2.15,2.15,0,0,1,.91-.93,2.66,2.66,0,0,1,1.28-.3,2.14,2.14,0,0,1,1.62.58,2.57,2.57,0,0,1,.57,1.87v6.38h-2.21v-5.94a1.46,1.46,0,0,0-.22-.93.88.88,0,0,0-.72-.26c-.78,0-1.17.47-1.17,1.42v5.71h-2.21v-8.61Z"/><path class="cls-1" d="M398.62,207.48v.88h0a2.6,2.6,0,0,1,.93-.84,2.67,2.67,0,0,1,1.24-.26,2.25,2.25,0,0,1,1.29.35,1.73,1.73,0,0,1,.7,1h0a2,2,0,0,1,.83-1,2.51,2.51,0,0,1,1.35-.34,1.94,1.94,0,0,1,1.62.66,3,3,0,0,1,.52,1.92v6.25H405v-6a1.42,1.42,0,0,0-.2-.83.74.74,0,0,0-.66-.28,1.05,1.05,0,0,0-.84.35,1.65,1.65,0,0,0-.31,1.12v5.66h-2.21v-6a1.5,1.5,0,0,0-.2-.83.76.76,0,0,0-.67-.28,1.05,1.05,0,0,0-.84.35,1.7,1.7,0,0,0-.31,1.12v5.66H396.5v-8.61Z"/><path class="cls-1" d="M410.68,212.81a4.65,4.65,0,0,0,.06.75,2.08,2.08,0,0,0,.18.64,1.27,1.27,0,0,0,.34.44.75.75,0,0,0,.51.17.88.88,0,0,0,.81-.4,3,3,0,0,0,.36-1.21h2a3.42,3.42,0,0,1-.8,2.28,3,3,0,0,1-2.32.79,3.74,3.74,0,0,1-1.87-.4,2.46,2.46,0,0,1-1-1.06,4.1,4.1,0,0,1-.4-1.47c0-.54-.07-1.09-.07-1.63a11.32,11.32,0,0,1,.12-1.67,4,4,0,0,1,.48-1.42,2.59,2.59,0,0,1,1-1,3.71,3.71,0,0,1,1.8-.37,3.43,3.43,0,0,1,1.57.31,2.36,2.36,0,0,1,1,.88,3.87,3.87,0,0,1,.48,1.38,11,11,0,0,1,.13,1.8v.49h-4.37Zm2.19-2.87a2.6,2.6,0,0,0-.16-.64,1,1,0,0,0-.34-.4,1,1,0,0,0-.55-.14.91.91,0,0,0-.56.16,1.17,1.17,0,0,0-.34.39,1.67,1.67,0,0,0-.18.56,3.08,3.08,0,0,0-.06.61v.33h2.26C412.93,210.48,412.9,210.19,412.87,209.94Z"/><path class="cls-1" d="M418.47,207.48v1h0a2.17,2.17,0,0,1,.92-.93,2.66,2.66,0,0,1,1.28-.3,2.16,2.16,0,0,1,1.62.58,2.57,2.57,0,0,1,.57,1.87v6.38h-2.21v-5.94a1.46,1.46,0,0,0-.22-.93.88.88,0,0,0-.72-.26c-.78,0-1.17.47-1.17,1.42v5.71h-2.21v-8.61Z"/><path class="cls-1" d="M427.21,205v2.46h1.28V209h-1.28v4.65a1.33,1.33,0,0,0,.15.73c.1.15.31.22.63.22h.26l.24,0v1.53c-.25,0-.48,0-.71,0l-.73,0a5,5,0,0,1-1.05-.09,1,1,0,0,1-.62-.35,1.45,1.45,0,0,1-.3-.7,6.36,6.36,0,0,1-.08-1.08V209h-1.12v-1.51H425V205Z"/><path class="cls-1" d="M438,204.67l3,11.42h-2.4l-.52-2.41h-3l-.53,2.41h-2.4l3-11.42Zm-.3,7.12-1.11-5.14h0l-1.1,5.14Z"/><path class="cls-1" d="M448.33,215.66a3.39,3.39,0,0,1-.83,2.49,3.73,3.73,0,0,1-2.76.84,3.41,3.41,0,0,1-2.16-.6,2,2,0,0,1-.76-1.71h2.11a.77.77,0,0,0,.33.66,2.31,2.31,0,0,0,.35.18,1.23,1.23,0,0,0,.39.06,1,1,0,0,0,.94-.43,1.93,1.93,0,0,0,.28-1.08v-1.13h0a2.51,2.51,0,0,1-.82.77,2,2,0,0,1-1,.28,2.2,2.2,0,0,1-2-1,6.3,6.3,0,0,1-.67-3.35,13.34,13.34,0,0,1,.09-1.53,4.7,4.7,0,0,1,.37-1.42,2.59,2.59,0,0,1,.82-1,2.29,2.29,0,0,1,1.43-.4,2,2,0,0,1,1,.26,1.86,1.86,0,0,1,.81.92h0v-1h2.11ZM444,212.91a3,3,0,0,0,.16.71,1.2,1.2,0,0,0,.34.5.85.85,0,0,0,.57.18.91.91,0,0,0,.58-.18,1.4,1.4,0,0,0,.37-.51,3,3,0,0,0,.19-.77,7.79,7.79,0,0,0,.06-1,7.16,7.16,0,0,0-.25-2.23.91.91,0,0,0-.91-.65,1,1,0,0,0-.59.16,1,1,0,0,0-.35.52,4.07,4.07,0,0,0-.17,1c0,.39,0,.88,0,1.46C443.91,212.36,443.93,212.64,444,212.91Z"/><path class="cls-1" d="M451.93,212.81a6.16,6.16,0,0,0,.05.75,2.4,2.4,0,0,0,.19.64,1.24,1.24,0,0,0,.33.44.76.76,0,0,0,.52.17.88.88,0,0,0,.81-.4,2.91,2.91,0,0,0,.35-1.21h2a3.42,3.42,0,0,1-.8,2.28,3,3,0,0,1-2.32.79,3.71,3.71,0,0,1-1.87-.4,2.55,2.55,0,0,1-1-1.06,4.31,4.31,0,0,1-.39-1.47c0-.54-.07-1.09-.07-1.63a11.32,11.32,0,0,1,.12-1.67,4,4,0,0,1,.48-1.42,2.52,2.52,0,0,1,1-1,3.69,3.69,0,0,1,1.79-.37,3.45,3.45,0,0,1,1.58.31,2.43,2.43,0,0,1,1,.88,3.87,3.87,0,0,1,.48,1.38,12.27,12.27,0,0,1,.13,1.8v.49h-4.37Zm2.19-2.87a2.21,2.21,0,0,0-.17-.64.88.88,0,0,0-.33-.4,1.06,1.06,0,0,0-.56-.14.9.9,0,0,0-.55.16,1.07,1.07,0,0,0-.34.39,2,2,0,0,0-.19.56,4.07,4.07,0,0,0-.05.61v.33h2.25Q454.17,210.32,454.12,209.94Z"/><path class="cls-1" d="M459.72,207.48v1h0a2.17,2.17,0,0,1,.92-.93,2.63,2.63,0,0,1,1.28-.3,2.16,2.16,0,0,1,1.62.58,2.57,2.57,0,0,1,.57,1.87v6.38h-2.21v-5.94a1.52,1.52,0,0,0-.22-.93A.88.88,0,0,0,461,209c-.78,0-1.17.47-1.17,1.42v5.71h-2.21v-8.61Z"/><path class="cls-1" d="M469.87,210a1.93,1.93,0,0,0-.14-.55,1,1,0,0,0-.3-.4.81.81,0,0,0-.51-.15,1.12,1.12,0,0,0-.66.18,1.18,1.18,0,0,0-.38.55,3.84,3.84,0,0,0-.18.91c0,.37,0,.8,0,1.3s0,1,0,1.37a4.13,4.13,0,0,0,.18.94,1.13,1.13,0,0,0,.36.53.93.93,0,0,0,.6.17.87.87,0,0,0,.82-.48,3.44,3.44,0,0,0,.25-1.53H472a3.84,3.84,0,0,1-.76,2.58,3.15,3.15,0,0,1-2.52.89,4.77,4.77,0,0,1-1.44-.2,2.2,2.2,0,0,1-1-.72,3.5,3.5,0,0,1-.61-1.39,9.54,9.54,0,0,1-.21-2.17,8,8,0,0,1,.25-2.2,3.51,3.51,0,0,1,.72-1.39,2.48,2.48,0,0,1,1.11-.73,4.49,4.49,0,0,1,1.41-.21,2.92,2.92,0,0,1,2.31.89,3.59,3.59,0,0,1,.77,2.44h-2.11A4.35,4.35,0,0,0,469.87,210Z"/><path class="cls-1" d="M473.59,217.26a1.06,1.06,0,0,0,.87-.32,1.55,1.55,0,0,0,.32-.85l-2.42-8.61h2.3l1.28,6h0l1.12-6h2.2l-2.08,8a15,15,0,0,1-.55,1.73,3,3,0,0,1-.62,1,1.77,1.77,0,0,1-.87.47,6.3,6.3,0,0,1-1.27.11H473v-1.65A3.66,3.66,0,0,0,473.59,217.26Z"/><path class="cls-1" d="M125.86,93l35.76,57.48h.24V93H179.5v85.68H160.66L125,121.32h-.24v57.36H107.14V93Z"/><path class="cls-1" d="M251,115.86a19,19,0,0,0-4.21-4.74,19.37,19.37,0,0,0-5.7-3.18,19.57,19.57,0,0,0-6.65-1.14,22,22,0,0,0-10.81,2.46,20.28,20.28,0,0,0-7.19,6.6,28.5,28.5,0,0,0-4,9.42,46.36,46.36,0,0,0-1.27,10.92,43.13,43.13,0,0,0,1.27,10.5,28,28,0,0,0,4,9.18,20.49,20.49,0,0,0,7.19,6.54,22,22,0,0,0,10.81,2.46q8.63,0,13.5-5.28t5.93-13.92h18.24a43.79,43.79,0,0,1-3.71,14.52,35.09,35.09,0,0,1-7.92,11,33.86,33.86,0,0,1-11.52,7,42.29,42.29,0,0,1-14.52,2.4,44,44,0,0,1-17.71-3.42,37.8,37.8,0,0,1-13.25-9.42,41.56,41.56,0,0,1-8.29-14.1,51.75,51.75,0,0,1-2.88-17.46,53.54,53.54,0,0,1,2.88-17.82A42.66,42.66,0,0,1,203.5,104a37.73,37.73,0,0,1,13.25-9.6A45.94,45.94,0,0,1,247.83,93a36.22,36.22,0,0,1,11.28,5.94,32.1,32.1,0,0,1,8.22,9.66,34.54,34.54,0,0,1,4.09,13.2H253.17A15.53,15.53,0,0,0,251,115.86Z"/><path class="cls-1" d="M348,172.14q-9.72,8.46-26.89,8.46-17.38,0-26.93-8.4t-9.55-25.92V93h18.84v53.28a37.91,37.91,0,0,0,.61,6.84,13.64,13.64,0,0,0,2.52,5.94,13.83,13.83,0,0,0,5.34,4.2,21.62,21.62,0,0,0,9.17,1.62q10.1,0,13.92-4.5t3.84-14.1V93h18.84v53.28Q357.69,163.68,348,172.14Z"/><path class="cls-1" d="M416.61,93l32.05,85.68H429.09l-6.48-19.08h-32l-6.73,19.08h-19L397.29,93Zm1.08,52.56L406.9,114.12h-.24L395.5,145.56Z"/></svg>