<svg id="Layer_1" data-name="Layer 1" xmlns="http://www.w3.org/2000/svg" width="40" height="40" viewBox="0 0 235.83 203.71"><path d="M149.5,90c2.4,8.4-1.7,11.4-8.9,6.5L119.3,82.3a4.78,4.78,0,0,0-4.9,0L93.1,96.45c-7.3,4.9-11.3,1.9-8.9-6.5l7-24.7a4.84,4.84,0,0,0-1.5-4.7L69.4,44.65c-6.9-5.4-5.3-10.2,3.4-10.5l25.6-1a5,5,0,0,0,4-2.9l8.9-24.1c3-8.2,8-8.2,11,0l8.9,24.1a4.9,4.9,0,0,0,4,2.9l25.6,1c8.8.4,10.3,5.1,3.4,10.5l-20.1,15.9a4.63,4.63,0,0,0-1.5,4.7Z" transform="translate(0 0)" fill="#e12c14"/><path d="M84.3,194.85c2.4,8.4-1.7,11.4-8.9,6.5l-21.3-14.2a4.78,4.78,0,0,0-4.9,0l-21.4,14.1c-7.3,4.9-11.3,1.9-8.9-6.5l7-24.7a4.84,4.84,0,0,0-1.5-4.7L4.3,149.45c-6.9-5.4-5.3-10.2,3.4-10.5l25.6-1a5,5,0,0,0,4-2.9L46.2,111c3-8.2,8-8.2,11,0l8.9,24.1a4.9,4.9,0,0,0,4,2.9l25.6,1c8.8.4,10.3,5.1,3.4,10.5L79,165.35a4.63,4.63,0,0,0-1.5,4.7Z" transform="translate(0 0)" fill="#e12c14"/><path d="M216.6,194.85c2.4,8.4-1.7,11.4-8.9,6.5l-21.3-14.2a4.78,4.78,0,0,0-4.9,0l-21.3,14.2c-7.3,4.9-11.3,1.9-8.9-6.5l7-24.7a4.84,4.84,0,0,0-1.5-4.7l-20.1-15.9c-6.9-5.4-5.3-10.2,3.4-10.5l25.6-1a5,5,0,0,0,4-2.9l8.9-24.1c3-8.2,8-8.2,11,0l8.9,24.1a4.9,4.9,0,0,0,4,2.9l25.6,1c8.8.4,10.3,5.1,3.4,10.5l-20.1,15.9a4.63,4.63,0,0,0-1.5,4.7Z" transform="translate(0 0)" fill="#e12c14"/></svg>