<svg viewBox="0 0 24.45 19.86" xmlns="http://www.w3.org/2000/svg"><path d="m16.91 0a5 5 0 0 0 -5 5 5 5 0 0 0 .09 1.15 14.3 14.3 0 0 1 -10.33-5.15 5 5 0 0 0 1.53 6.61 5 5 0 0 1 -2.2-.61 5 5 0 0 0 4 4.91 4.89 4.89 0 0 1 -1.32.18 5.55 5.55 0 0 1 -1-.09 5 5 0 0 0 4.64 3.5 10.09 10.09 0 0 1 -6.12 2.18 9.66 9.66 0 0 1 -1.2-.07 14.07 14.07 0 0 0 7.69 2.25 14.18 14.18 0 0 0 14.31-14.06v-.8a10.13 10.13 0 0 0 2.5-2.6 9.94 9.94 0 0 1 -2.88.79 5 5 0 0 0 2.16-2.83 9.82 9.82 0 0 1 -3.19 1.22 5 5 0 0 0 -3.66-1.58" fill="#fff"/></svg>